<svg width="21" height="21" viewBox="0 0 21 21" fill="none" xmlns="http://www.w3.org/2000/svg">
<path d="M5.29779 19.4988C4.77384 19.692 4.20478 19.7329 3.65803 19.6165C3.11128 19.5001 2.60978 19.2314 2.21294 18.8423C1.93946 18.5755 1.72272 18.2575 1.57544 17.9068C1.42816 17.5562 1.35331 17.18 1.35529 16.8005C1.35823 16.5337 1.3985 16.2685 1.47496 16.0126C1.18675 15.4804 0.963568 14.9162 0.810124 14.3319C0.199135 15.1641 -0.0817437 16.1886 0.0206421 17.2115C0.123028 18.2344 0.601575 19.1848 1.36572 19.8828C2.12987 20.5808 3.1266 20.9779 4.1673 20.9991C5.208 21.0203 6.22046 20.664 7.01308 19.9977C6.42359 19.8979 5.84793 19.7305 5.29779 19.4988ZM10.7827 16.853C9.82217 17.3817 8.71332 17.5869 7.62406 17.4377C6.53481 17.2884 5.52446 16.7928 4.74598 16.0258C3.96833 15.2605 3.46503 14.2653 3.31262 13.1917C3.16022 12.118 3.36704 11.0246 3.90163 10.0776C3.75604 9.46372 3.67362 8.83684 3.65564 8.20655C2.52434 9.39842 1.90702 10.9782 1.93432 12.6115C1.96162 14.2449 2.63139 15.8037 3.8019 16.958C4.97559 18.1102 6.5555 18.7689 8.21025 18.7958C9.865 18.8227 11.466 18.2158 12.6775 17.1025C12.0391 17.0817 11.4044 16.9981 10.7827 16.853Z" fill="black"/>
<path d="M12.9435 15.8879C11.0827 15.8852 9.28036 15.2455 7.84355 14.0778C6.40674 12.9102 5.42428 11.2868 5.06351 9.48413C4.70273 7.68147 4.98596 5.81105 5.86495 4.19146C6.74394 2.57186 8.16432 1.30326 9.88417 0.601731C11.604 -0.0998001 13.517 -0.190872 15.2972 0.344028C17.0774 0.878928 18.6148 2.00672 19.6475 3.5353C20.6801 5.06389 21.1443 6.89872 20.9608 8.72729C20.7773 10.5559 19.9575 12.2651 18.6411 13.5638C17.8926 14.3018 17.0041 14.8869 16.0265 15.2857C15.0488 15.6844 14.0012 15.8891 12.9435 15.8879ZM12.9435 1.30648C12.0602 1.30561 11.1855 1.47666 10.3692 1.80984C9.55293 2.14302 8.81117 2.63179 8.18632 3.24822C7.56146 3.86465 7.06576 4.59665 6.72756 5.40238C6.38935 6.2081 6.21527 7.07174 6.21527 7.94394C6.2154 8.81699 6.39186 9.68126 6.73434 10.4861C7.07681 11.291 7.57841 12.0204 8.20979 12.6315C9.47152 13.8772 11.1826 14.5769 12.9667 14.5769C14.7508 14.5769 16.4619 13.8772 17.7237 12.6315C18.6633 11.7013 19.3023 10.5167 19.5596 9.2276C19.8169 7.93852 19.681 6.60303 19.1691 5.39028C18.6573 4.17753 17.7924 3.14208 16.6841 2.41509C15.5758 1.6881 14.274 1.30227 12.9435 1.30648Z" fill="black"/>
</svg>
