<svg width="21" height="21" viewBox="0 0 21 21" fill="none" xmlns="http://www.w3.org/2000/svg">
<path d="M6.64165 2.15945V2.10945V0.735C6.64165 0.553327 6.56948 0.379094 6.44102 0.250632C6.31256 0.122169 6.13832 0.05 5.95665 0.05C5.77515 0.0499998 5.60106 0.122035 5.47263 0.250286C5.34421 0.37852 5.27193 0.552472 5.27165 0.73395C5.27165 0.733974 5.27165 0.733998 5.27165 0.734021M6.64165 2.15945L5.22165 0.73395L5.27165 0.734021M6.64165 2.15945H6.69165H14.5845H14.6345V2.10945V0.74445C14.6345 0.562777 14.7067 0.388544 14.8351 0.260082C14.9636 0.131619 15.1378 0.05945 15.3195 0.05945C15.5012 0.05945 15.6754 0.131619 15.8039 0.260082C15.9323 0.388544 16.0045 0.562777 16.0045 0.74445V2.10945V2.15945H16.0545H18.9C19.4435 2.15945 19.9648 2.37529 20.3492 2.75952C20.7336 3.14375 20.9497 3.66491 20.95 4.20842V18.901C20.9497 19.4445 20.7336 19.9657 20.3492 20.3499C19.9648 20.7342 19.4435 20.95 18.9 20.95H2.1C1.55648 20.95 1.03521 20.7342 0.650793 20.3499C0.266379 19.9657 0.0502783 19.4446 0.05 18.901L6.64165 2.15945ZM5.27165 0.734021L5.27165 2.10945V2.15945H5.22165H2.1C1.55648 2.15945 1.03521 2.37529 0.650793 2.75952C0.266379 3.14374 0.0502783 3.66489 0.05 4.2084C0.05 4.20841 0.05 4.20842 0.05 4.20842L0 4.2084L5.27165 0.734021ZM1.47004 8.0791L1.42 8.07906V8.1291V18.901C1.42 18.9903 1.43759 19.0788 1.47176 19.1613C1.50594 19.2438 1.55602 19.3187 1.61917 19.3819C1.68231 19.445 1.75727 19.4951 1.83978 19.5293C1.92228 19.5635 2.0107 19.581 2.1 19.581H18.9C18.9893 19.581 19.0777 19.5635 19.1602 19.5293C19.2427 19.4951 19.3177 19.445 19.3808 19.3819C19.444 19.3187 19.4941 19.2438 19.5282 19.1613C19.5624 19.0788 19.58 18.9903 19.58 18.901V8.1438V8.09384L19.53 8.0938L1.47004 8.0791ZM5.27165 3.5784V3.5284H5.22165H2.1C2.0107 3.5284 1.92228 3.54599 1.83978 3.58016C1.75727 3.61433 1.68231 3.66442 1.61917 3.72757C1.55602 3.79071 1.50594 3.86567 1.47176 3.94817C1.43759 4.03068 1.42 4.1191 1.42 4.2084V6.66015V6.71011L1.46996 6.71015L19.53 6.72485L19.58 6.72489V6.67485V4.2084C19.58 4.1191 19.5624 4.03068 19.5282 3.94818C19.4941 3.86567 19.444 3.79071 19.3808 3.72757C19.3177 3.66442 19.2427 3.61433 19.1602 3.58016C19.0777 3.54599 18.9893 3.5284 18.9 3.5284H16.0545H16.0045V3.5784V4.55385C16.0045 4.73552 15.9323 4.90976 15.8039 5.03822C15.6754 5.16668 15.5012 5.23885 15.3195 5.23885C15.1378 5.23885 14.9636 5.16668 14.8351 5.03822C14.7067 4.90976 14.6345 4.73552 14.6345 4.55385V3.5784V3.5284H14.5845H6.69165H6.64165V3.5784V4.5444C6.64165 4.72607 6.56948 4.90031 6.44102 5.02877C6.31256 5.15723 6.13832 5.2294 5.95665 5.2294C5.77498 5.2294 5.60074 5.15723 5.47228 5.02877C5.34382 4.90031 5.27165 4.72607 5.27165 4.5444V3.5784ZM6.95035 15.4V17.0492H5.3V15.4H6.95035ZM11.3246 15.4V17.0492H9.67535V15.4H11.3246ZM15.7 15.4V17.0492H14.0497V15.4H15.7ZM6.95035 11.2241V12.8734H5.3V11.2241H6.95035ZM11.3246 11.2241V12.8734H9.67535V11.2241H11.3246ZM15.7 11.2241V12.8734H14.0497V11.2241H15.7Z" fill="black" stroke="#EAEAEA" stroke-width="0.1"/>
</svg>
