<svg width="21" height="21" viewBox="0 0 21 21" fill="none" xmlns="http://www.w3.org/2000/svg">
<path d="M4.5 10.5H6.25V12.25H4.5V10.5Z" fill="black"/>
<path d="M4.5 14.5H6.25V16.25H4.5V14.5Z" fill="black"/>
<path d="M11.25 10.5H9.5V12.25H11.25V10.5Z" fill="black"/>
<path d="M9.5 14.5H11.25V16.25H9.5V14.5Z" fill="black"/>
<path d="M16.25 10.5H14.5V12.25H16.25V10.5Z" fill="black"/>
<path d="M14.5 14.5H16.25V16.25H14.5V14.5Z" fill="black"/>
<path fill-rule="evenodd" clip-rule="evenodd" d="M7.5 0.75C7.5 0.335786 7.16421 0 6.75 0C6.33579 0 6 0.335786 6 0.75V2H2C0.895431 2 0 2.89543 0 4V19C0 20.1046 0.89543 21 2 21H19C20.1046 21 21 20.1046 21 19V4C21 2.89543 20.1046 2 19 2H14.5V0.75C14.5 0.335786 14.1642 0 13.75 0C13.3358 0 13 0.335786 13 0.75V2H7.5V0.75ZM2 3.5H6V4.25C6 4.66421 6.33579 5 6.75 5C7.16421 5 7.5 4.66421 7.5 4.25V3.5H13V4.25C13 4.66421 13.3358 5 13.75 5C14.1642 5 14.5 4.66421 14.5 4.25V3.5H19C19.2761 3.5 19.5 3.72386 19.5 4V6.75H1.5V4C1.5 3.72386 1.72386 3.5 2 3.5ZM19.5 8.25H1.5V19C1.5 19.2761 1.72386 19.5 2 19.5H19C19.2761 19.5 19.5 19.2761 19.5 19V8.25Z" fill="black"/>
</svg>
