<svg width="22" height="21" viewBox="0 0 22 21" fill="none" xmlns="http://www.w3.org/2000/svg">
<path d="M16.7071 7.70711C17.0976 7.31658 17.0976 6.68342 16.7071 6.29289C16.3166 5.90237 15.6834 5.90237 15.2929 6.29289L9 12.5858L7.20711 10.7929C6.81658 10.4024 6.18342 10.4024 5.79289 10.7929C5.40237 11.1834 5.40237 11.8166 5.79289 12.2071L9 15.4142L16.7071 7.70711Z" fill="#338D5F"/>
<path fill-rule="evenodd" clip-rule="evenodd" d="M21.5 10.5C21.5 16.299 16.799 21 11 21C5.20101 21 0.5 16.299 0.5 10.5C0.5 4.70101 5.20101 0 11 0C16.799 0 21.5 4.70101 21.5 10.5ZM19.5 10.5C19.5 15.1944 15.6944 19 11 19C6.30558 19 2.5 15.1944 2.5 10.5C2.5 5.80558 6.30558 2 11 2C15.6944 2 19.5 5.80558 19.5 10.5Z" fill="#338D5F"/>
</svg>
