<svg width="20" height="20" viewBox="0 0 20 20" fill="none" xmlns="http://www.w3.org/2000/svg">
<path d="M6.75 8.25C6.75 8.05109 6.82902 7.86032 6.96967 7.71967C7.11032 7.57902 7.30109 7.5 7.5 7.5H12.5C12.6989 7.5 12.8897 7.57902 13.0303 7.71967C13.171 7.86032 13.25 8.05109 13.25 8.25C13.25 8.44891 13.171 8.63968 13.0303 8.78033C12.8897 8.92098 12.6989 9 12.5 9H7.5C7.30109 9 7.11032 8.92098 6.96967 8.78033C6.82902 8.63968 6.75 8.44891 6.75 8.25ZM7.5 13C7.30109 13 7.11032 13.079 6.96967 13.2197C6.82902 13.3603 6.75 13.5511 6.75 13.75C6.75 13.9489 6.82902 14.1397 6.96967 14.2803C7.11032 14.421 7.30109 14.5 7.5 14.5H12.5C12.6989 14.5 12.8897 14.421 13.0303 14.2803C13.171 14.1397 13.25 13.9489 13.25 13.75C13.25 13.5511 13.171 13.3603 13.0303 13.2197C12.8897 13.079 12.6989 13 12.5 13H7.5ZM13.994 2.084C13.9521 1.51752 13.6975 0.987861 13.2813 0.601319C12.865 0.214778 12.318 -3.32977e-05 11.75 3.87141e-09H8.25C7.69656 1.67245e-05 7.16255 0.204007 6.75004 0.572972C6.33754 0.941936 6.07549 1.44999 6.014 2H4.25C3.65326 2 3.08097 2.23705 2.65901 2.65901C2.23705 3.08097 2 3.65326 2 4.25V17.75C2 18.3467 2.23705 18.919 2.65901 19.341C3.08097 19.7629 3.65326 20 4.25 20H15.75C16.0455 20 16.3381 19.9418 16.611 19.8287C16.884 19.7157 17.1321 19.5499 17.341 19.341C17.5499 19.1321 17.7157 18.884 17.8287 18.611C17.9418 18.3381 18 18.0455 18 17.75V4.25C18 3.95453 17.9418 3.66194 17.8287 3.38896C17.7157 3.11598 17.5499 2.86794 17.341 2.65901C17.1321 2.45008 16.884 2.28434 16.611 2.17127C16.3381 2.0582 16.0455 2 15.75 2H13.986L13.994 2.084ZM13.994 2.096L14 2.25C14 2.198 13.997 2.147 13.994 2.096ZM8.25 4.5H11.75C12.53 4.5 13.217 4.103 13.621 3.5H15.75C15.9489 3.5 16.1397 3.57902 16.2803 3.71967C16.421 3.86032 16.5 4.05109 16.5 4.25V17.75C16.5 17.9489 16.421 18.1397 16.2803 18.2803C16.1397 18.421 15.9489 18.5 15.75 18.5H4.25C4.05109 18.5 3.86032 18.421 3.71967 18.2803C3.57902 18.1397 3.5 17.9489 3.5 17.75V4.25C3.5 4.05109 3.57902 3.86032 3.71967 3.71967C3.86032 3.57902 4.05109 3.5 4.25 3.5H6.379C6.783 4.103 7.47 4.5 8.25 4.5ZM8.25 1.5H11.75C11.9489 1.5 12.1397 1.57902 12.2803 1.71967C12.421 1.86032 12.5 2.05109 12.5 2.25C12.5 2.44891 12.421 2.63968 12.2803 2.78033C12.1397 2.92098 11.9489 3 11.75 3H8.25C8.05109 3 7.86032 2.92098 7.71967 2.78033C7.57902 2.63968 7.5 2.44891 7.5 2.25C7.5 2.05109 7.57902 1.86032 7.71967 1.71967C7.86032 1.57902 8.05109 1.5 8.25 1.5Z" fill="white"/>
</svg>
