<svg width="21" height="21" viewBox="0 0 21 21" fill="none" xmlns="http://www.w3.org/2000/svg">
<path d="M2.88435 8.2523C2.66113 8.25263 2.48744 8.28734 2.34788 8.35581L2.34786 8.35577L2.3447 8.35742C2.1756 8.44543 2.03602 8.58104 1.9432 8.74748C1.6609 9.20721 1.425 10.1072 1.425 11.8139C1.425 13.5056 1.65513 15.5574 2.0241 17.1756L2.02412 17.1757L2.7783 19.0433L2.64311 19.1083C2.64317 19.1084 2.64324 19.1086 2.6433 19.1087C2.68406 19.1935 2.72282 19.2644 2.75847 19.3245L2.8875 19.5422L3.01654 19.3245C3.05218 19.2644 3.09092 19.1935 3.13167 19.1088C3.3521 18.657 3.56509 17.9873 3.75087 17.1758L3.75087 17.1757C4.12094 15.5584 4.35 13.5066 4.35 11.8139C4.35 10.1072 4.11411 9.20721 3.8318 8.74748C3.73898 8.58104 3.5994 8.44543 3.4303 8.35742L3.43046 8.3571L3.42093 8.35295C3.25194 8.27937 3.0685 8.24497 2.88435 8.2523ZM2.88435 8.2523C2.8854 8.2523 2.88645 8.2523 2.8875 8.2523V8.4023L2.88114 8.25244C2.88221 8.25239 2.88328 8.25235 2.88435 8.2523ZM3.68866 0.21316L3.68876 0.213209C3.79699 0.26523 3.8883 0.346747 3.95221 0.448368C4.01612 0.549989 4.05001 0.667584 4.05 0.787613V0.787628C4.05 1.7074 4.40147 2.24189 4.81365 2.85526L4.81364 2.85527L4.81473 2.85684L4.84465 2.90017C5.1935 3.4191 5.625 4.064 5.625 4.98651C5.625 5.92784 5.15045 6.75777 4.42639 7.25063L4.2624 7.36225L4.41449 7.48962C4.60175 7.64645 4.76894 7.84074 4.91455 8.07604C5.39155 8.84749 5.625 10.0477 5.625 11.8149C5.625 13.601 5.38472 15.748 4.99352 17.4605L4.9935 17.4606C4.79928 18.3124 4.55978 19.0902 4.27829 19.6684L4.27826 19.6684L4.27698 19.6711C4.14744 19.9515 3.97597 20.2106 3.76847 20.4394C3.56638 20.6458 3.27046 20.85 2.8875 20.85C2.50437 20.85 2.20842 20.6456 2.00757 20.4394C1.79953 20.2112 1.62805 19.9521 1.49923 19.6715L1.49926 19.6714L1.49772 19.6683C1.21527 19.0892 0.97582 18.3127 0.781638 17.4602C0.374446 15.6051 0.162745 13.7125 0.150001 11.8134C0.150045 10.0464 0.3835 8.84738 0.860485 8.076L0.861085 8.07501C0.995321 7.85413 1.16421 7.65626 1.36127 7.48898L1.51168 7.36131L1.34844 7.25051C0.978924 6.99971 0.67649 6.66222 0.467576 6.26758C0.258662 5.87293 0.149627 5.43314 0.150001 4.98664V4.98651V4.98631C0.150001 4.60696 0.150001 3.96916 0.537961 3.1418L0.537963 3.1418C0.919223 2.32866 1.65039 1.38107 3.01379 0.289591C3.10763 0.214571 3.22076 0.167586 3.34016 0.154056C3.45958 0.140523 3.58039 0.161013 3.68866 0.21316ZM3.7431 3.54705L3.7427 3.54646C3.50196 3.18913 3.22698 2.77943 3.03231 2.25539L2.95019 2.03431L2.78478 2.20242C2.20489 2.79177 1.87918 3.28619 1.69333 3.68198L1.6933 3.68203C1.42506 4.25383 1.425 4.66674 1.425 4.98546C1.425 5.37313 1.57901 5.74613 1.85337 6.02042C2.12765 6.29462 2.49963 6.44866 2.8875 6.44866C3.27537 6.44866 3.64736 6.29462 3.92163 6.02042C4.19591 5.74622 4.35 5.37431 4.35 4.98651C4.35 4.47387 4.12754 4.11888 3.75537 3.56546L3.7431 3.54705ZM8.55 13.5606V13.4337L8.42481 13.4127C7.91492 13.3272 7.41811 13.1773 6.94625 12.9667C6.96866 12.4941 6.97731 12.021 6.9722 11.548C7.3994 11.8002 7.86859 11.989 8.36685 12.1019L8.55 12.1434V11.9556V8.92296C8.55 8.54515 8.70012 8.18281 8.96736 7.91565C9.2346 7.64848 9.59705 7.49838 9.975 7.49838H14.175H14.325L14.325 7.34837C14.325 6.43935 14.0706 5.54846 13.5907 4.77636C13.1108 4.00426 12.4245 3.38173 11.6093 2.97909C10.7942 2.57645 9.88259 2.40975 8.97763 2.49783C8.13875 2.57948 7.33653 2.87704 6.64859 3.35997C6.45402 2.88694 6.21009 2.51245 6.02727 2.24023C6.92137 1.64145 7.9578 1.28722 9.0332 1.21419C10.1574 1.13785 11.2809 1.37172 12.2811 1.89027C13.2814 2.40882 14.1199 3.19212 14.7052 4.15465C15.2905 5.11718 15.6 6.22196 15.6 7.34838L15.6 7.49838H15.75H19.425C19.8029 7.49838 20.1654 7.64848 20.4326 7.91565C20.6999 8.18281 20.85 8.54515 20.85 8.92296V18.3704C20.85 18.7483 20.6999 19.1106 20.4326 19.3778C20.1654 19.6449 19.8029 19.795 19.425 19.795H9.975C9.59705 19.795 9.2346 19.6449 8.96736 19.3778C8.70012 19.1106 8.55 18.7483 8.55 18.3704V13.5606ZM9.96244 13.4773L9.825 13.4888V13.6268V18.3715V18.5215H9.975H19.425H19.575V18.3715V8.92401V8.77401H19.425H15.5505H15.4344L15.4053 8.88646C15.0859 10.1213 14.3906 11.2264 13.4155 12.0488C12.4404 12.8713 11.2337 13.3705 9.96244 13.4773ZM14.0476 8.97408L14.1184 8.77401H13.9062H9.975H9.825V8.92401V12.0448V12.2126L9.99171 12.1939C10.9019 12.0919 11.765 11.7358 12.4822 11.1664C13.1995 10.597 13.742 9.83725 14.0476 8.97408Z" fill="black" stroke="white" stroke-width="0.3"/>
</svg>
