<svg width="40" height="35" viewBox="0 0 40 35" fill="none" xmlns="http://www.w3.org/2000/svg">
<path d="M39.4285 28.7156L23.8132 2.13859C23.423 1.48747 22.8659 0.947589 22.1972 0.572465C21.5285 0.197342 20.7714 0 20.0009 0C19.2304 0 18.4733 0.197342 17.8046 0.572465C17.1359 0.947589 16.5788 1.48747 16.1886 2.13859L0.573315 28.7156C0.197863 29.3454 0 30.0617 0 30.7911C0 31.5205 0.197863 32.2368 0.573315 32.8665C0.958528 33.5216 1.51464 34.0644 2.18459 34.4393C2.85454 34.8142 3.6142 35.0076 4.38562 34.9998H35.6162C36.387 35.007 37.1459 34.8133 37.8152 34.4384C38.4844 34.0636 39.04 33.5211 39.4249 32.8665C39.8009 32.2371 39.9994 31.5209 40 30.7915C40.0006 30.0621 39.8034 29.3457 39.4285 28.7156ZM36.9518 31.4648C36.8157 31.6924 36.6202 31.8804 36.3855 32.0095C36.1508 32.1387 35.8853 32.2044 35.6162 32.1998H4.38562C4.11649 32.2044 3.85095 32.1387 3.61625 32.0095C3.38154 31.8804 3.1861 31.6924 3.04997 31.4648C2.92667 31.2602 2.86162 31.0269 2.86162 30.7893C2.86162 30.5517 2.92667 30.3184 3.04997 30.1138L18.6652 3.53683C18.8041 3.31033 19.0004 3.12292 19.2351 2.9928C19.4698 2.86268 19.7348 2.7943 20.0045 2.7943C20.2741 2.7943 20.5391 2.86268 20.7738 2.9928C21.0085 3.12292 21.2048 3.31033 21.3437 3.53683L36.959 30.1138C37.0812 30.319 37.145 30.5526 37.1437 30.7903C37.1425 31.0279 37.0762 31.2608 36.9518 31.4648ZM18.5724 20.9999V14C18.5724 13.6287 18.7229 13.2726 18.9908 13.01C19.2587 12.7475 19.622 12.6 20.0009 12.6C20.3798 12.6 20.7431 12.7475 21.011 13.01C21.2789 13.2726 21.4294 13.6287 21.4294 14V20.9999C21.4294 21.3712 21.2789 21.7273 21.011 21.9898C20.7431 22.2524 20.3798 22.3999 20.0009 22.3999C19.622 22.3999 19.2587 22.2524 18.9908 21.9898C18.7229 21.7273 18.5724 21.3712 18.5724 20.9999ZM22.1436 27.2998C22.1436 27.7152 22.018 28.1212 21.7825 28.4665C21.5471 28.8119 21.2124 29.081 20.8209 29.24C20.4293 29.3989 19.9985 29.4405 19.5829 29.3595C19.1672 29.2784 18.7854 29.0784 18.4857 28.7848C18.1861 28.4911 17.982 28.1169 17.8993 27.7095C17.8166 27.3022 17.8591 26.8799 18.0213 26.4962C18.1834 26.1125 18.4581 25.7845 18.8104 25.5538C19.1628 25.323 19.5771 25.1999 20.0009 25.1999C20.5692 25.1999 21.1142 25.4211 21.516 25.8149C21.9179 26.2088 22.1436 26.7429 22.1436 27.2998Z" fill="#FF5B5B"/>
</svg>
