<svg width="37" height="32" viewBox="0 0 37 32" fill="none" xmlns="http://www.w3.org/2000/svg">
<path d="M35.9856 26.2542L21.9319 1.95529C21.5807 1.35997 21.0793 0.866367 20.4775 0.523397C19.8757 0.180427 19.1943 0 18.5008 0C17.8074 0 17.1259 0.180427 16.5241 0.523397C15.9223 0.866367 15.4209 1.35997 15.0697 1.95529L1.01598 26.2542C0.678076 26.8301 0.5 27.4849 0.5 28.1518C0.5 28.8187 0.678076 29.4736 1.01598 30.0494C1.36268 30.6483 1.86318 31.1446 2.46613 31.4874C3.06909 31.8301 3.75278 32.007 4.44706 31.9998H32.5545C33.2483 32.0064 33.9313 31.8293 34.5336 31.4866C35.136 31.1438 35.636 30.6478 35.9824 30.0494C36.3208 29.4739 36.4994 28.8191 36.5 28.1523C36.5006 27.4854 36.323 26.8303 35.9856 26.2542ZM33.7566 28.7678C33.6341 28.9759 33.4582 29.1478 33.247 29.2659C33.0357 29.384 32.7968 29.444 32.5545 29.4398H4.44706C4.20484 29.444 3.96586 29.384 3.75462 29.2659C3.54339 29.1478 3.36749 28.9759 3.24498 28.7678C3.134 28.5808 3.07546 28.3675 3.07546 28.1502C3.07546 27.933 3.134 27.7197 3.24498 27.5326L17.2987 3.23367C17.4237 3.02659 17.6004 2.85524 17.8116 2.73627C18.0228 2.61731 18.2614 2.55479 18.504 2.55479C18.7467 2.55479 18.9852 2.61731 19.1964 2.73627C19.4076 2.85524 19.5843 3.02659 19.7093 3.23367L33.7631 27.5326C33.8731 27.7203 33.9305 27.9338 33.9294 28.1511C33.9282 28.3684 33.8686 28.5813 33.7566 28.7678ZM17.2152 19.1999V12.8C17.2152 12.4605 17.3506 12.1349 17.5917 11.8949C17.8328 11.6548 18.1598 11.52 18.5008 11.52C18.8418 11.52 19.1688 11.6548 19.4099 11.8949C19.651 12.1349 19.7865 12.4605 19.7865 12.8V19.1999C19.7865 19.5394 19.651 19.865 19.4099 20.105C19.1688 20.345 18.8418 20.4799 18.5008 20.4799C18.1598 20.4799 17.8328 20.345 17.5917 20.105C17.3506 19.865 17.2152 19.5394 17.2152 19.1999ZM20.4293 24.9599C20.4293 25.3396 20.3162 25.7108 20.1043 26.0265C19.8924 26.3423 19.5912 26.5884 19.2388 26.7337C18.8864 26.879 18.4987 26.917 18.1246 26.8429C17.7505 26.7689 17.4069 26.586 17.1372 26.3175C16.8675 26.049 16.6838 25.7069 16.6094 25.3344C16.535 24.962 16.5732 24.5759 16.7191 24.2251C16.8651 23.8743 17.1123 23.5744 17.4294 23.3635C17.7465 23.1525 18.1194 23.0399 18.5008 23.0399C19.0123 23.0399 19.5028 23.2422 19.8644 23.6022C20.2261 23.9623 20.4293 24.4506 20.4293 24.9599Z" fill="#FF5B5B"/>
</svg>
