<svg width="24" height="24" viewBox="0 0 24 24" fill="none" xmlns="http://www.w3.org/2000/svg">
<path d="M11.4589 0C11.7921 0.000376943 12.1126 0.130506 12.3549 0.363798C12.5972 0.59709 12.743 0.915937 12.7626 1.25519C12.7821 1.59445 12.6739 1.92851 12.46 2.18911C12.2461 2.44971 11.9427 2.6172 11.6119 2.65733L11.4589 2.66667H4.92208C4.60187 2.66671 4.2928 2.78661 4.05351 3.00362C3.81422 3.22063 3.66134 3.51967 3.62387 3.844L3.61472 4V20C3.61476 20.3266 3.73233 20.6418 3.94511 20.8858C4.1579 21.1299 4.45111 21.2858 4.76912 21.324L4.92208 21.3333H10.8052C11.1384 21.3337 11.4589 21.4638 11.7012 21.6971C11.9435 21.9304 12.0893 22.2493 12.1089 22.5885C12.1284 22.9278 12.0202 23.2618 11.8063 23.5224C11.5924 23.783 11.2891 23.9505 10.9582 23.9907L10.8052 24H4.92208C3.92168 24.0001 2.95906 23.6102 2.23119 22.9103C1.50333 22.2103 1.06523 21.2532 1.00654 20.2347L1 20V4C0.999944 2.97972 1.38217 1.99798 2.06849 1.25565C2.7548 0.513324 3.6933 0.0665233 4.69199 0.00666682L4.92208 0H11.4589ZM18.92 7.28533L22.6172 11.0573C22.8623 11.3074 23 11.6464 23 12C23 12.3536 22.8623 12.6926 22.6172 12.9427L18.92 16.7147C18.6747 16.9647 18.342 17.1051 17.9952 17.1049C17.6484 17.1048 17.3159 16.9642 17.0707 16.714C16.8256 16.4638 16.6879 16.1246 16.6881 15.7709C16.6882 15.4172 16.8261 15.078 17.0714 14.828L18.5369 13.3333H11.4589C11.1122 13.3333 10.7796 13.1929 10.5344 12.9428C10.2893 12.6928 10.1515 12.3536 10.1515 12C10.1515 11.6464 10.2893 11.3072 10.5344 11.0572C10.7796 10.8071 11.1122 10.6667 11.4589 10.6667H18.5369L17.0714 9.172C16.8261 8.92199 16.6882 8.58283 16.6881 8.22914C16.6879 7.87545 16.8256 7.53619 17.0707 7.286C17.3159 7.03581 17.6484 6.89519 17.9952 6.89506C18.342 6.89494 18.6747 7.03532 18.92 7.28533Z" fill="white"/>
</svg>
