<svg width="22" height="21" viewBox="0 0 22 21" fill="none" xmlns="http://www.w3.org/2000/svg">
<path d="M11 3C11.5527 3 12 3.44727 12 4V12C12 12.5527 11.5527 13 11 13C10.4473 13 10 12.5527 10 12V4C10 3.92383 10.0078 3.84961 10.0234 3.77832C10.04 3.70605 10.0645 3.63672 10.0957 3.57129C10.2568 3.2334 10.6006 3 11 3Z" fill="#FF5B5B"/>
<path d="M11 17C11.8281 17 12.5 16.3281 12.5 15.5C12.5 14.6719 11.8281 14 11 14C10.1719 14 9.5 14.6719 9.5 15.5C9.5 16.3281 10.1719 17 11 17Z" fill="#FF5B5B"/>
<path fill-rule="evenodd" clip-rule="evenodd" d="M11 21C16.7988 21 21.5 16.2988 21.5 10.5C21.5 4.70117 16.7988 0 11 0C5.20117 0 0.5 4.70117 0.5 10.5C0.5 16.2988 5.20117 21 11 21ZM11 19C15.6943 19 19.5 15.1943 19.5 10.5C19.5 5.80566 15.6943 2 11 2C6.30566 2 2.5 5.80566 2.5 10.5C2.5 15.1943 6.30566 19 11 19Z" fill="#FF5B5B"/>
</svg>
