<svg width="21" height="21" viewBox="0 0 21 21" fill="none" xmlns="http://www.w3.org/2000/svg">
<path d="M11.9756 18.8806C15.9695 18.1731 19.0001 14.6885 19.0001 10.5C19.0001 6.31154 15.9695 2.82694 11.9756 2.11946V0.0941227C17.0775 0.820895 21.0001 5.20289 21.0001 10.5C21.0001 15.7972 17.0775 20.1792 11.9756 20.9059V18.8806Z" fill="#52ADFF"/>
<path d="M5.02281 17.0416C6.38072 18.1719 8.09621 18.8885 9.97558 18.9973V21.0001C7.54445 20.8862 5.32905 19.9484 3.60296 18.4598L5.02281 17.0416Z" fill="#52ADFF"/>
<path d="M2.01148 11.5013C2.19012 13.0233 2.77093 14.4229 3.64512 15.5909L2.21834 17.0161C0.994535 15.4706 0.196262 13.5735 0.000236155 11.5013H2.01148Z" fill="#52ADFF"/>
<path d="M3.72517 5.3039C2.80592 6.49334 2.19486 7.93231 2.01119 9.50128H0C0.19998 7.38186 1.02993 5.44555 2.30083 3.88114L3.72517 5.3039Z" fill="#52ADFF"/>
<path d="M9.97558 2.00275C8.1429 2.10881 6.46606 2.79294 5.12468 3.875L3.70306 2.45497C5.41431 1.0159 7.59119 0.111637 9.97558 0V2.00275Z" fill="#52ADFF"/>
</svg>
