<svg width="21" height="21" viewBox="0 0 21 21" fill="none" xmlns="http://www.w3.org/2000/svg">
<path d="M8 4.25C8.41421 4.25 8.75 4.58579 8.75 5V7H10C10.5523 7 11 7.44772 11 8C11 8.55228 10.5523 9 10 9H8.75V16C8.75 16.4142 8.41421 16.75 8 16.75C7.58579 16.75 7.25 16.4142 7.25 16V9H6C5.44772 9 5 8.55228 5 8C5 7.44772 5.44772 7 6 7H7.25V5C7.25 4.58579 7.58579 4.25 8 4.25Z" fill="#8A8D00"/>
<path d="M13 4.25C13.4142 4.25 13.75 4.58579 13.75 5V12H15C15.5523 12 16 12.4477 16 13C16 13.5523 15.5523 14 15 14H13.75V16C13.75 16.4142 13.4142 16.75 13 16.75C12.5858 16.75 12.25 16.4142 12.25 16V14H11C10.4477 14 10 13.5523 10 13C10 12.4477 10.4477 12 11 12H12.25V5C12.25 4.58579 12.5858 4.25 13 4.25Z" fill="#8A8D00"/>
<path fill-rule="evenodd" clip-rule="evenodd" d="M21 10.5C21 16.299 16.299 21 10.5 21C4.70101 21 0 16.299 0 10.5C0 4.70101 4.70101 0 10.5 0C16.299 0 21 4.70101 21 10.5ZM19 10.5C19 15.1944 15.1944 19 10.5 19C5.80558 19 2 15.1944 2 10.5C2 5.80558 5.80558 2 10.5 2C15.1944 2 19 5.80558 19 10.5Z" fill="#8A8D00"/>
</svg>
