<svg width="21" height="21" viewBox="0 0 21 21" fill="none" xmlns="http://www.w3.org/2000/svg">
<path d="M14.1231 8.76537L14.1231 8.76542C14.2202 8.83085 14.2999 8.91965 14.3551 9.02403C14.4103 9.12841 14.4392 9.24508 14.4392 9.36364C14.4392 9.4822 14.4103 9.59886 14.3551 9.70325C14.2999 9.80762 14.2202 9.89642 14.1231 9.96185L14.1231 9.9619L9.27692 13.2346L9.27689 13.2346C9.17031 13.3067 9.04655 13.348 8.9188 13.3542C8.79105 13.3605 8.66396 13.3315 8.55107 13.2703C8.43816 13.2091 8.34362 13.1178 8.27766 13.0062C8.21169 12.8945 8.17684 12.7667 8.17692 12.6364V12.6364V6.09091V6.09084C8.17684 5.96054 8.21169 5.83273 8.27766 5.72108C8.34362 5.60943 8.43816 5.5182 8.55107 5.45697C8.66396 5.39574 8.79105 5.36676 8.9188 5.37303C9.04654 5.3793 9.17031 5.42059 9.27689 5.49262L9.27692 5.49264L14.1231 8.76537ZM9.59231 11.1074V11.2956L9.74827 11.1903L12.3309 9.44651L12.4538 9.36351L12.3307 9.28068L9.74815 7.54205L9.59231 7.43713V7.625V11.1074ZM19.3846 15.1909H19.4846V15.0909V3.63636V3.53636H19.3846H1.61538H1.51538V3.63636V15.0909V15.1909H1.61538H19.3846ZM1.61538 2.1H19.3846C19.7861 2.1 20.1714 2.26155 20.4557 2.54953C20.74 2.83756 20.9 3.22848 20.9 3.63636V15.0909C20.9 15.4988 20.74 15.8897 20.4557 16.1777C20.1714 16.4657 19.7861 16.6273 19.3846 16.6273H1.61538C1.2139 16.6273 0.828593 16.4657 0.544301 16.1777C0.259965 15.8897 0.1 15.4988 0.1 15.0909V3.63636C0.1 3.22848 0.259965 2.83756 0.5443 2.54953C0.828592 2.26155 1.2139 2.1 1.61538 2.1ZM20.9 19.1818C20.9 19.3727 20.8251 19.5555 20.6923 19.6901C20.5594 19.8247 20.3796 19.9 20.1923 19.9H0.807692C0.62042 19.9 0.440553 19.8247 0.307733 19.6901C0.17487 19.5555 0.1 19.3727 0.1 19.1818C0.1 18.9909 0.17487 18.8081 0.307733 18.6735C0.440553 18.539 0.62042 18.4636 0.807692 18.4636H20.1923C20.3796 18.4636 20.5594 18.539 20.6923 18.6735C20.8251 18.8081 20.9 18.9909 20.9 19.1818Z" fill="black" stroke="white" stroke-width="0.2"/>
</svg>
