<svg width="21" height="21" viewBox="0 0 21 21" fill="none" xmlns="http://www.w3.org/2000/svg">
<path d="M2.325 18.675V18.375V17.3255V17.325H2.625L2.325 18.675ZM2.325 18.675H2.625M2.325 18.675H2.625M2.625 18.675H18.375H18.675M2.625 18.675H18.675M18.675 18.675V18.375M18.675 18.675V18.375M18.675 18.375V17.325C18.675 17.0319 18.6012 16.7587 18.4514 16.5127C18.305 16.2722 18.1083 16.082 17.8639 15.9469L17.8641 15.9466M18.675 18.375L17.8641 15.9466M17.8641 15.9466L17.8529 15.941M17.8641 15.9466L17.8529 15.941M17.8529 15.941C16.653 15.3411 15.4398 14.8903 14.2136 14.5897C12.9874 14.2892 11.7495 14.1384 10.5002 14.1375C9.25066 14.1366 8.01242 14.2875 6.786 14.5898C5.56008 14.8921 4.34715 15.3428 3.1474 15.9409L3.14727 15.9406M17.8529 15.941L3.14727 15.9406M3.14727 15.9406L3.13556 15.9471M3.14727 15.9406L3.13556 15.9471M3.13556 15.9471C2.89236 16.0822 2.69611 16.2722 2.54908 16.5119L2.80481 16.6687L3.13556 15.9471ZM10.5007 8.175C11.3024 8.17484 11.9964 7.88604 12.5665 7.31687C13.1371 6.74726 13.426 6.05269 13.425 5.24964C13.424 4.44715 13.1354 3.75333 12.5667 3.18462C11.998 2.61592 11.3038 2.32694 10.5007 2.325C9.69642 2.32306 9.0018 2.61258 8.43372 3.18552C7.86707 3.75701 7.57792 4.44997 7.575 5.2489C7.57208 6.04959 7.86203 6.74411 8.43462 7.31669C9.00703 7.8891 9.70095 8.1787 10.5007 8.175ZM10.5007 8.175C10.5004 8.175 10.5002 8.175 10.5 8.175V7.875L10.5007 8.175ZM20.7 17.3246V17.325V20.7H0.3V17.325C0.3 16.6358 0.47674 16.007 0.830397 15.4321C1.1855 14.8548 1.65318 14.4174 2.23628 14.1141C3.57264 13.4462 4.92878 12.9462 6.3049 12.6133C7.68181 12.2803 9.08007 12.1134 10.5002 12.1125C11.92 12.1116 13.3181 12.2785 14.6948 12.6133C16.0712 12.9479 17.4275 13.448 18.7641 14.1143C19.3478 14.4167 19.8158 14.854 20.1708 15.4319C20.5245 16.0077 20.7008 16.6365 20.7 17.3246ZM10.5 10.2C9.13645 10.2 7.97663 9.71799 7.00432 8.74568C6.03201 7.77337 5.55 6.61355 5.55 5.25C5.55 3.88645 6.03201 2.72663 7.00432 1.75432C7.97663 0.782007 9.13645 0.3 10.5 0.3C11.8636 0.3 13.0234 0.782007 13.9957 1.75432C14.968 2.72663 15.45 3.88645 15.45 5.25C15.45 6.61355 14.968 7.77337 13.9957 8.74568C13.0234 9.71799 11.8636 10.2 10.5 10.2Z" fill="black" stroke="#EAEAEA" stroke-width="0.6"/>
</svg>
