<svg width="21" height="21" viewBox="0 0 21 21" fill="none" xmlns="http://www.w3.org/2000/svg">
<path d="M0.5 8C0.5 7.17157 1.17157 6.5 2 6.5H3.6459C4.9716 6.5 6.18352 5.75099 6.77639 4.56525L6.89443 4.32918C7.14852 3.821 7.66791 3.5 8.23607 3.5H12.7639C13.3321 3.5 13.8515 3.821 14.1056 4.32918L14.2236 4.56525L14.6708 4.34164L14.2236 4.56525C14.8165 5.75099 16.0284 6.5 17.3541 6.5H19C19.8284 6.5 20.5 7.17157 20.5 8V17C20.5 17.8284 19.8284 18.5 19 18.5H2C1.17157 18.5 0.5 17.8284 0.5 17V8Z" stroke="black"/>
<path d="M8.10854 14.0938C8.74252 14.7379 9.60272 15.1 10.5 15.1C11.3973 15.1 12.2575 14.7379 12.8915 14.0938C13.5254 13.4498 13.8813 12.5767 13.8813 11.6667C13.8813 10.7566 13.5254 9.88348 12.8915 9.23949C12.2575 8.59545 11.3973 8.23333 10.5 8.23333C9.60272 8.23333 8.74252 8.59545 8.10854 9.23949C7.47461 9.88348 7.11875 10.7566 7.11875 11.6667C7.11875 12.5767 7.47461 13.4498 8.10854 14.0938ZM13.677 14.8963C12.8341 15.7526 11.6913 16.2333 10.5 16.2333C9.3087 16.2333 8.16586 15.7526 7.32299 14.8963C6.48007 14.04 6.00625 12.8783 6.00625 11.6667C6.00625 10.455 6.48007 9.29329 7.32299 8.43699C8.16586 7.58074 9.3087 7.1 10.5 7.1C11.6913 7.1 12.8341 7.58074 13.677 8.43699C14.5199 9.29329 14.9937 10.455 14.9937 11.6667C14.9937 12.8783 14.5199 14.04 13.677 14.8963ZM3.8375 9C3.8375 9.15079 3.77852 9.2951 3.67402 9.40125C3.56958 9.50735 3.42826 9.56667 3.28125 9.56667C3.13424 9.56667 2.99292 9.50735 2.88848 9.40125C2.78398 9.2951 2.725 9.15079 2.725 9C2.725 8.84921 2.78398 8.7049 2.88848 8.59875C2.99292 8.49265 3.13424 8.43333 3.28125 8.43333C3.42826 8.43333 3.56958 8.49265 3.67402 8.59875C3.77852 8.7049 3.8375 8.84921 3.8375 9Z" fill="black" stroke="white" stroke-width="0.2"/>
</svg>
