<svg width="21" height="21" viewBox="0 0 21 21" fill="none" xmlns="http://www.w3.org/2000/svg">
<path d="M13.8229 3.85149L13.8229 3.85147C13.3493 3.37027 12.7073 3.10015 12.0382 3.1L13.8229 3.85149ZM13.8229 3.85149L14.9096 4.95547C14.9096 4.95548 14.9096 4.95548 14.9096 4.95549C15.4204 5.47453 16.1136 5.76651 16.8367 5.76667H18.375C19.0442 5.76667 19.6862 6.03669 20.1599 6.51787C20.6336 6.99909 20.9 7.65211 20.9 8.33333V16.3333C20.9 17.0146 20.6336 17.6676 20.1599 18.1488C19.6862 18.63 19.0442 18.9 18.375 18.9H2.625C1.95584 18.9 1.31376 18.63 0.84011 18.1488C0.366402 17.6676 0.1 17.0146 0.1 16.3333V8.33333C0.1 7.65211 0.366402 6.99909 0.84011 6.51787C1.31376 6.03669 1.95584 5.76667 2.625 5.76667H4.16325H4.16327C4.88644 5.76651 5.5796 5.47453 6.09039 4.95549C6.09039 4.95548 6.0904 4.95548 6.0904 4.95547L7.17714 3.85149L7.17715 3.85147M13.8229 3.85149L7.17715 3.85147M7.17715 3.85147C7.65069 3.37027 8.29265 3.10015 8.96175 3.1C8.96176 3.1 8.96176 3.1 8.96177 3.1M7.17715 3.85147L8.96177 3.1M8.96177 3.1H12.0382H8.96177ZM6.87457 5.75776L6.87447 5.75786C6.15516 6.48881 5.17992 6.89944 4.16319 6.9H2.625C2.24987 6.9 1.89043 7.0514 1.62566 7.32037C1.36094 7.58929 1.2125 7.95369 1.2125 8.33333V16.3333C1.2125 16.713 1.36094 17.0774 1.62566 17.3463C1.89043 17.6153 2.24987 17.7667 2.625 17.7667H18.375C18.7501 17.7667 19.1096 17.6153 19.3743 17.3463C19.6391 17.0774 19.7875 16.713 19.7875 16.3333V8.33333C19.7875 7.95369 19.6391 7.58929 19.3743 7.32037C19.1096 7.0514 18.7501 6.9 18.375 6.9H16.8368C16.3328 6.90006 15.8338 6.79926 15.3682 6.60332C14.9026 6.40738 14.4794 6.12011 14.1229 5.75786L14.1229 5.75785L13.0362 4.65386C13.0361 4.65386 13.0361 4.65385 13.0361 4.65385C12.7714 4.38486 12.4121 4.23341 12.037 4.23333H12.0369L8.96044 4.23333L8.96021 4.23333C8.58609 4.23418 8.22786 4.38557 7.96385 4.65386L6.87457 5.75776Z" fill="black" stroke="white" stroke-width="0.2"/>
<path d="M8.10854 14.0938C8.74252 14.7379 9.60272 15.1 10.5 15.1C11.3973 15.1 12.2575 14.7379 12.8915 14.0938C13.5254 13.4498 13.8813 12.5767 13.8813 11.6667C13.8813 10.7566 13.5254 9.88348 12.8915 9.23949C12.2575 8.59545 11.3973 8.23333 10.5 8.23333C9.60272 8.23333 8.74252 8.59545 8.10854 9.23949C7.47461 9.88348 7.11875 10.7566 7.11875 11.6667C7.11875 12.5767 7.47461 13.4498 8.10854 14.0938ZM13.677 14.8963C12.8341 15.7526 11.6913 16.2333 10.5 16.2333C9.3087 16.2333 8.16586 15.7526 7.32299 14.8963C6.48007 14.04 6.00625 12.8783 6.00625 11.6667C6.00625 10.455 6.48007 9.29329 7.32299 8.43699C8.16586 7.58074 9.3087 7.1 10.5 7.1C11.6913 7.1 12.8341 7.58074 13.677 8.43699C14.5199 9.29329 14.9937 10.455 14.9937 11.6667C14.9937 12.8783 14.5199 14.04 13.677 14.8963ZM3.8375 9C3.8375 9.15079 3.77852 9.2951 3.67402 9.40125C3.56958 9.50735 3.42826 9.56667 3.28125 9.56667C3.13424 9.56667 2.99292 9.50735 2.88848 9.40125C2.78398 9.2951 2.725 9.15079 2.725 9C2.725 8.84921 2.78398 8.7049 2.88848 8.59875C2.99292 8.49265 3.13424 8.43333 3.28125 8.43333C3.42826 8.43333 3.56958 8.49265 3.67402 8.59875C3.77852 8.7049 3.8375 8.84921 3.8375 9Z" fill="black" stroke="white" stroke-width="0.2"/>
</svg>
