<svg width="21" height="21" viewBox="0 0 21 21" fill="none" xmlns="http://www.w3.org/2000/svg">
<path d="M2.50912 16.9321L2.66757 3.92228C2.67045 3.67816 2.72449 3.43688 2.82659 3.21222C2.9287 2.98757 3.07687 2.78395 3.26264 2.61298C3.44841 2.44201 3.66815 2.30705 3.9093 2.21581C4.15045 2.12457 4.40828 2.07884 4.66808 2.08122L16.5359 2.19123C17.0605 2.19612 17.5611 2.39661 17.9277 2.74858C18.2944 3.10056 18.4969 3.5752 18.4909 4.0681L18.3324 17.0779C18.3295 17.322 18.2755 17.5633 18.1734 17.7879C18.0713 18.0126 17.9231 18.2162 17.7374 18.3872C17.5516 18.5582 17.3319 18.6931 17.0907 18.7844C16.8496 18.8756 16.5917 18.9213 16.3319 18.9189L4.46408 18.8089C3.93954 18.804 3.43889 18.6036 3.07227 18.2516C2.70565 17.8996 2.50308 17.425 2.50912 16.9321Z" stroke="black"/>
<path d="M6.60062 5.8166L14.5127 5.88897M6.55491 9.53361L14.4671 9.60691M6.51018 13.2505L11.455 13.2966" stroke="black" stroke-linecap="round"/>
</svg>
