<svg width="21" height="21" viewBox="0 0 21 21" fill="none" xmlns="http://www.w3.org/2000/svg">
<path d="M5.79288 15.2081C5.40236 14.8176 5.40238 14.1844 5.79291 13.7939L9.08644 10.5005L5.79291 7.20717C5.40238 6.81665 5.40236 6.18349 5.79288 5.79295C6.18339 5.40242 6.81655 5.4024 7.20709 5.79292L10.5007 9.08635L13.7943 5.79288C14.1849 5.40236 14.818 5.40238 15.2085 5.79291C15.5991 6.18344 15.599 6.81661 15.2085 7.20712L11.9149 10.5005L15.2085 13.7939C15.599 14.1844 15.5991 14.8176 15.2085 15.2081C14.818 15.5987 14.1849 15.5987 13.7943 15.2082L10.5007 11.9147L7.20709 15.2081C6.81656 15.5987 6.18339 15.5986 5.79288 15.2081Z" fill="#FF5B5B"/>
<path fill-rule="evenodd" clip-rule="evenodd" d="M21 10.5C21 16.299 16.299 21 10.5 21C4.70101 21 0 16.299 0 10.5C0 4.70101 4.70101 0 10.5 0C16.299 0 21 4.70101 21 10.5ZM19 10.5C19 15.1944 15.1944 19 10.5 19C5.80558 19 2 15.1944 2 10.5C2 5.80558 5.80558 2 10.5 2C15.1944 2 19 5.80558 19 10.5Z" fill="#FF5B5B"/>
</svg>
