<svg width="840" height="718" viewBox="0 0 840 718" fill="none" xmlns="http://www.w3.org/2000/svg">
<g opacity="0.2" clip-path="url(#clip0_596_1383)">
<path fill-rule="evenodd" clip-rule="evenodd" d="M496.562 284.506C496.562 284.506 496.4 284.531 496.296 284.559C496.026 284.668 495.724 284.73 495.486 284.887C495.838 284.737 496.178 284.609 496.549 284.528L496.562 284.506ZM1112.33 906.137C1115.87 912.13 1116.24 920.687 1110.86 925.715C1108.22 927.58 1106.46 929.807 1105.9 933.023C1104.66 936.608 1102.05 939.287 1099.27 941.75C1097.89 943.726 1096.69 945.861 1094.74 947.355C1086.07 953.203 1074.33 951.552 1066.04 945.763C1047.55 934.378 1032.59 918.254 1015.53 904.954C1013.54 902.98 1010.39 900.753 1007.11 898.414C1011.64 908.368 1016.98 917.936 1022.72 927.209C1026.68 934.36 1030.56 941.551 1035.75 947.907C1041.4 955.915 1052.51 962.355 1051.17 973.406C1050.8 977.639 1046.3 982.469 1041.59 984.025C1040 989.947 1030.25 996.46 1025.02 996.509C1019.82 1000.82 1013.36 1000.86 1008.08 996.545C991.514 983.619 981.764 964.401 968.535 948.45C960.719 938.72 954.614 927.355 944.619 919.61C922.683 902.376 894.552 896.687 871.706 881.08C840.029 861.642 811.334 837.705 784.963 811.633C780.772 807.386 776.056 803.69 771.534 799.812C723.703 789.381 675.317 781.549 627.444 771.242C597.624 766.435 568.755 757.578 539.946 748.668C523.887 743.907 507.274 740.977 491.773 734.533C482.689 730.733 474.587 727.941 466.378 723.084C455.116 718.557 443.889 713.814 433.412 707.618C431.218 705.998 428.508 704.964 426.241 703.419C425.563 703.469 424.875 703.485 424.152 703.509C418.782 704.271 413.183 704.251 408.141 706.439C399.938 710.163 391.442 713.423 382.447 714.685C357.035 717.788 331.267 724.783 305.647 720.219C293.58 717.084 279.525 714.069 270.454 705.03C269.163 703.43 268.19 701.689 267.481 699.747C267.104 698.763 266.81 697.738 266.468 696.745C260.012 694.786 258.748 691.197 256.537 687.15C255.133 687.076 253.776 686.41 252.798 684.932C245.375 672.835 257.12 657.656 270.259 657.4C278.931 655.982 287.653 656.625 296.358 656.787C305.036 656.639 313.565 654.548 321.917 652.355C329.914 650.369 337.352 646.793 344.965 643.731C347.328 642.707 349.69 641.683 352.043 640.625C346.47 634.784 341.797 628.047 337.451 621.205C334.33 615.513 329.667 608.811 327.559 602.082C322.067 605.662 316.178 608.599 310.101 611.045C293.352 618.884 275.545 624.108 257.03 625.032C244.88 626.389 232.527 626.154 220.521 623.732C211.721 621.894 201.837 621.523 194.52 615.736C192.731 614.232 191.426 612.299 190.238 610.316C185.884 608.245 181.044 606.246 178.537 601.792C175.145 592.582 166.155 594.142 170.01 583.015C177.604 566.795 198.802 569.454 213.65 566.442C221.99 565.037 230.145 562.878 238.207 560.37C258.714 555.79 275.115 541.855 291.629 529.872C297.559 525.072 301.391 517.616 307.877 513.696C308.243 513.318 308.577 512.892 308.899 512.488C308.253 496.935 308.527 481.323 308.624 465.815C309.054 447.581 310.016 429.242 315.24 411.654C319.39 394.802 324.667 378.247 330.165 361.819C335.249 346.213 343.094 332.113 343.277 315.535C343.38 303.951 329.744 297.552 322.824 289.696C316.164 282.873 307.658 276.076 304.802 266.704C301.933 261.805 295.659 256.562 297.432 250.423C297.512 250.233 297.602 250.078 297.704 249.901C296.932 247.658 296.336 245.368 295.996 242.99C295.666 241.414 295.144 239.198 294.801 236.877C293 230.384 291.801 223.767 292.111 216.99C292.911 204.865 296.278 193.102 299.783 181.508C302.907 172.876 303.644 163.162 307.947 155.094C310.13 147.069 308.899 138.871 310.423 130.76C311.683 125.356 309.79 119.43 311.702 114.225C311.792 114.071 311.881 113.916 311.992 113.774C311.544 111.687 310.908 109.67 309.923 107.745C307.654 97.3561 304.115 87.5309 301.017 77.4007C296.391 64.0888 299.342 46.397 317.259 50.1384C327.106 52.6694 335.915 57.8147 344.575 63.1682C344.95 63.0308 345.356 62.941 345.794 62.8989C367.671 67.2468 383.692 84.6023 395.913 102.299C410.719 123.906 423.374 152.052 413.329 177.734C415.106 181.56 410.883 186.727 409.37 190.422C402.978 201.441 396.198 212.265 388.453 222.355C381.282 230.123 376.404 239.952 375.555 250.575C375.403 254.879 376.56 259.114 378.438 262.969C380.027 267.07 384.275 270.348 384.538 274.803C385.125 275.319 385.739 275.791 386.349 276.114C396.159 284.283 409.498 281.992 421.167 280.446C429.027 279.413 436.947 278.326 444.492 275.844C447.675 274.881 450.642 272.556 454.102 272.903C457.991 273.379 459.988 278.306 457.53 281.337C470.975 280.345 484.447 280.636 497.501 284.311C497.707 284.312 497.891 284.301 498.084 284.324C500.197 283.274 502.28 282.325 503.783 281.306C509.113 278.518 514.569 275.92 520.054 273.427C536.697 265.821 554.313 260.929 572.403 258.286C587.811 254.713 600.01 257.364 613.765 263.301C633.375 269.376 650.469 281.397 668.869 294.732C681.124 304.343 694.601 312.654 708.987 318.573C714.633 320.505 720.596 321.325 726.18 323.517C754.309 337.134 705.51 364.228 692.448 369.362C681.234 373.853 668.989 375.273 656.979 375.619C634.987 376.276 613.19 371.944 593.208 362.677C581.509 356.808 570.823 349.134 559.632 342.437C553.209 338.169 546.423 334.428 539.148 331.79C536.773 331.097 533.567 330.307 531.541 328.754C526.887 328.071 522.118 328.148 517.362 329.175C522.542 341.068 528.105 353.064 535.951 363.459C542.032 370.006 549.736 374.867 557.56 379.06C565.693 383.077 573.841 387.016 582.134 390.654C590.543 394.447 603.103 396.983 605.42 407.34C605.763 410.427 604.337 415.352 601.947 418.776C602.26 424.676 599.553 432.28 598.232 437.177C593.852 450.389 584.797 463.26 571.107 467.795C564.879 469.888 558.457 467.153 552.359 466.669C543.67 470.878 534.395 472.981 524.694 472.244C526.243 475.083 529.942 476.246 531.209 479.012C535.396 482.549 539.863 485.806 544.149 489.224C554.726 497.394 565.329 505.52 576.705 512.56C580.399 514.958 584.186 517.144 588.109 519.144C588.88 519.088 589.697 519.206 590.476 519.596C597.305 522.802 604.339 525.449 611.434 528.042C626.289 533.405 641.615 537.184 657.042 540.431C694.916 550.566 733.559 557.224 772.26 563.267C788.072 566 803.803 569.334 819.745 571.228C820.431 570.858 821.244 570.679 822.099 570.731C828.118 571.199 834.09 572.259 840.136 572.832C858.326 574.874 876.659 575.643 894.715 578.786C920.959 584.211 950.79 589.614 968.694 611.122C971.682 610.755 974.827 610.625 976.958 609.645C983.261 607.83 989.533 605.763 995.619 603.352C1014.73 595.724 1031.08 582.175 1044.66 566.936C1045.81 565.358 1046.91 563.755 1047.97 562.126C1049.89 559.519 1051.73 556.839 1053.38 554.079C1054.38 552.412 1055.41 550.678 1056.08 548.854C1056.61 547.422 1057.18 546.015 1057.74 544.596C1058.99 541.514 1060.2 538.384 1061.41 535.277C1063.78 529.071 1066.04 522.801 1067.42 516.318C1068.15 512.85 1068.82 509.343 1069.24 505.811C1069.44 504.187 1069.63 502.563 1069.72 500.932C1069.76 500.042 1069.8 499.152 1069.8 498.237C1069.82 496.979 1069.75 495.762 1069.51 494.592C1069.56 493.44 1069.55 492.283 1069.54 491.127C1069.53 488.175 1069.28 485.231 1069.06 482.277C1068.84 479.232 1068.55 476.206 1068.24 473.166C1068.08 471.601 1067.87 470.032 1067.67 468.475C1067.38 466.123 1067.08 463.417 1065.92 461.333C1065.17 459.983 1064.13 458.856 1062.87 458.07C1061 451.241 1058.48 444.566 1055.8 438.008C1054.25 434.459 1052.85 430.85 1051.13 427.382C1049.51 425.419 1049.45 422.521 1051.22 420.569C1054.81 417.274 1057.78 419.079 1059.88 422.09C1062.81 423.514 1064.73 428.013 1066.63 430.645C1071.46 437.677 1076 444.897 1080.23 452.293C1088.55 468.266 1089.95 486.851 1090.54 504.552C1091.63 538.106 1078.64 572.464 1052.17 593.82C1042.51 601.392 1032.85 609.283 1021.25 613.728C1017.04 614.891 1009.38 620.021 1004.15 619.715C999.592 621.887 994.867 623.728 989.864 624.878C987.691 625.215 984.806 626.172 981.842 626.908C982.666 627.885 983.445 628.836 984.146 629.565C994.174 642.163 998.526 658.353 1002.18 673.757C1004.69 684.961 1008.63 695.875 1010.04 707.298C1011.79 723.903 1014.49 740.496 1018.31 756.734C1024.28 783.376 1029.02 796.992 1050.22 815.005C1054.86 819.486 1057.23 825.567 1059.49 831.47C1063.67 842.319 1068.08 853.203 1074.87 862.722C1080.06 869.581 1085.77 876.06 1091.43 882.513C1098.53 890.209 1107.14 896.829 1112.32 906.102L1112.33 906.137Z" fill="#8C6A60"/>
<path fill-rule="evenodd" clip-rule="evenodd" d="M729.391 342.906C728.691 345.243 725.911 347.912 723.563 350.035C720.183 353.537 716.38 356.647 712.189 359.15C709.59 360.685 706.909 362.056 704.165 363.331C669.011 382.032 624.603 383.57 589.606 363.542C570.5 353.218 553.788 337.468 532.74 330.917C526.839 327.893 518.863 330.51 513.947 325.932C507.747 319.08 503.629 310.513 496.617 304.401C494.447 301.41 487.23 300.308 489.244 295.694C489.865 294.873 490.718 294.216 491.715 293.613C491.026 293.834 490.395 294.059 489.938 294.237C485.62 295.016 479.132 298.787 475.737 294.645C474.234 289.474 481.908 289.837 484.942 288.11C488.515 287.137 491.105 283.828 494.63 283.092C496.583 283.188 498.121 285.432 496.986 287.194C498.264 288.816 497.926 290.065 496.883 291.054C499.163 289.866 501.068 288.46 501.191 285.996C501.094 284.731 502.002 283.517 502.874 282.723C510.086 276.982 519.056 274.026 527.417 270.334C540.601 265.448 554.017 260.518 568.036 258.738C570.682 257.377 575.634 253.043 577.858 256.862C579.051 260.882 573.189 260.858 571.073 262.938C534.351 290.285 577.901 333.291 606.527 346.251C634.09 360.131 675.026 363.839 704.868 354.392C715.818 349.336 725.098 341.547 727.073 328.716C725.003 325.398 730.233 322.935 731.825 326.418C731.868 326.65 731.924 326.859 731.946 327.078C733.166 327.163 734.342 327.99 734.459 329.679C734.068 334.346 732.022 338.912 729.417 342.862L729.391 342.906ZM979.393 624.547C979.299 624.404 979.169 624.271 979.062 624.15C977.781 622.585 976.404 621.082 975.002 619.624C972.983 617.957 971.077 616.297 970.002 614.733C968.849 613.714 967.683 612.716 966.456 611.772C964.376 610.159 962.137 608.718 959.821 607.411C959.991 606.861 960.345 606.299 960.963 605.741C963.355 604.41 964.719 607.468 966.16 608.654C967.212 609.644 968.217 610.666 969.208 611.71C969.452 610.878 970.175 610.087 971.534 609.369C972.624 609.526 973.721 609.57 974.84 609.626C977.125 609.708 979.408 609.641 981.694 609.516C986.026 609.276 990.489 608.551 994.543 607.001C997.696 605.785 1000.72 604.378 1003.7 602.797C1006.61 601.234 1009.43 599.529 1012.24 597.823C1016.08 595.471 1019.56 592.616 1022.66 589.394C1024.16 588.582 1025.69 587.725 1027.16 586.864C1028.29 586.281 1029.66 585.151 1030.97 584.67C1031.15 582.919 1033.51 581.598 1035.73 582.556C1050.39 582.325 1060.75 568.824 1069.29 558.392C1079.54 544.976 1084.95 528.441 1087.18 511.895C1087.46 508.4 1087.58 504.929 1087.5 501.434C1088.15 497.801 1084.54 487.846 1090.61 488.523C1093.34 489.272 1092.33 495.206 1092.43 498.713C1092.92 499.144 1093.23 499.791 1093.19 500.681C1093.06 505.09 1092.71 509.542 1092.11 513.945C1088.63 549.841 1068.34 587.029 1036.55 603.841C1022.77 612.718 1008.15 620.308 992.029 623.884C988.31 624.802 984.062 627.508 980.579 624.642C979.644 623.601 978.469 622.569 977.214 621.52C977.987 622.586 978.747 623.673 979.485 624.747C979.44 624.722 979.422 624.652 979.377 624.626L979.393 624.547ZM995.238 655.095C994.817 654.852 994.38 654.688 993.943 654.524C992.739 650.882 991.549 647.217 990.088 643.662C989.039 641.081 987.907 638.541 986.658 636.051C986.843 636.395 987.064 636.728 987.25 637.071C991.016 643.078 994.175 649.47 996.698 656.145C996.253 655.74 995.769 655.402 995.215 655.082L995.238 655.095ZM314.031 709.375C313.733 708.613 313.923 707.721 314.385 707.074C314.513 706.852 314.716 706.705 314.716 706.705C321.037 706.139 327.613 705.691 334.248 705.041C334.73 705.024 335.199 705.03 335.681 705.013C346.886 704.732 357.94 702.36 368.77 699.504C370.027 699.169 371.284 698.833 372.54 698.498C372.61 698.479 372.68 698.46 372.784 698.432C373.099 698.348 373.413 698.265 373.727 698.181C374.425 697.994 375.101 697.795 375.799 697.608C376.196 697.484 376.602 697.394 376.999 697.269C377.291 697.173 377.592 697.111 377.884 697.014C377.919 697.005 377.954 696.995 377.989 696.986C378.002 696.964 378.059 696.968 378.094 696.958C378.373 696.884 378.665 696.787 378.944 696.712C379.201 696.625 379.446 696.56 379.725 696.485C379.9 696.439 380.087 696.37 380.261 696.323C380.366 696.295 380.471 696.267 380.576 696.239C380.75 696.193 380.903 696.133 381.077 696.087C381.252 696.04 381.404 695.981 381.579 695.934C381.753 695.887 381.905 695.828 382.08 695.781C382.185 695.753 382.302 695.703 382.407 695.675C382.629 695.597 382.873 695.532 383.083 695.476C383.223 695.439 383.34 695.389 383.48 695.351C383.549 695.333 383.632 695.292 383.724 695.286C383.794 695.268 383.876 695.227 383.968 695.221C384.073 695.193 384.143 695.174 384.225 695.134C384.26 695.124 384.295 695.115 384.33 695.106C384.4 695.087 384.47 695.068 384.552 695.028C384.914 694.912 385.276 694.797 385.616 694.669C385.803 694.6 385.978 694.553 386.165 694.485C386.339 694.438 386.527 694.369 386.701 694.323C386.736 694.313 386.806 694.295 386.841 694.286C386.876 694.276 386.911 694.267 386.958 694.235C387.168 694.179 387.368 694.089 387.555 694.02C387.555 694.02 387.555 694.02 387.59 694.011C387.638 693.979 387.695 693.983 387.743 693.951C387.93 693.882 388.104 693.836 388.27 693.754C388.444 693.708 388.609 693.626 388.797 693.558C388.844 693.526 388.901 693.53 388.949 693.498C389.066 693.448 389.184 693.398 389.311 693.383C389.381 693.364 389.45 693.345 389.533 693.305C389.616 693.264 389.685 693.245 389.79 693.217C389.895 693.189 389.977 693.149 390.082 693.121C390.235 693.061 390.409 693.015 390.561 692.955C390.679 692.905 390.819 692.868 390.971 692.808C391.311 692.68 391.615 692.562 391.955 692.433C391.99 692.424 392.038 692.393 392.073 692.383C392.447 692.246 392.8 692.096 393.174 691.958C393.527 691.808 393.901 691.671 394.254 691.52C394.606 691.37 394.981 691.233 395.333 691.082C395.686 690.932 396.06 690.795 396.413 690.645C396.765 690.494 397.153 690.335 397.518 690.162C397.87 690.012 398.236 689.84 398.61 689.702C398.61 689.702 398.623 689.68 398.658 689.671C400.82 688.738 402.951 687.758 405.073 686.742C406.133 686.235 407.207 685.705 408.258 685.162C408.801 684.886 409.379 684.601 409.923 684.325C409.97 684.294 410.04 684.275 410.1 684.221C410.148 684.19 410.231 684.149 410.278 684.118C410.361 684.077 410.456 684.014 410.561 683.986C410.761 683.895 410.974 683.783 411.174 683.692C411.882 683.334 412.626 682.967 413.334 682.61C414.207 682.171 415.081 681.732 415.932 681.28C416.015 681.24 416.11 681.177 416.193 681.136C416.262 681.117 416.323 681.064 416.37 681.032C417.044 680.684 417.717 680.336 418.391 679.988C419.051 679.662 419.703 679.301 420.363 678.975C420.389 678.931 420.446 678.934 420.493 678.903C421.132 678.564 421.805 678.216 422.444 677.877C423.117 677.529 423.781 677.146 424.455 676.798C425.436 676.274 426.396 675.737 427.377 675.213C427.425 675.182 427.472 675.15 427.507 675.141C428.193 674.771 428.88 674.4 429.566 674.03C429.696 673.958 429.814 673.908 429.944 673.836C430.404 673.601 430.843 673.353 431.303 673.117C431.599 672.964 431.859 672.819 432.155 672.666C432.958 672.245 433.749 671.847 434.54 671.449C434.848 671.273 435.166 671.132 435.483 670.991C435.814 670.828 436.109 670.675 436.427 670.534C436.744 670.393 437.052 670.217 437.37 670.076C437.687 669.935 438.018 669.772 438.335 669.631C438.653 669.49 438.983 669.327 439.301 669.186C439.618 669.045 439.936 668.905 440.275 668.776C440.78 668.567 441.272 668.379 441.777 668.17C441.777 668.17 441.777 668.17 441.79 668.148C442.282 667.96 442.752 667.76 443.244 667.572C443.244 667.572 443.279 667.563 443.314 667.554C443.619 667.435 443.889 667.325 444.193 667.206C445.316 667 446.449 666.829 447.591 666.692C447.936 666.656 448.26 666.607 448.606 666.57C451.672 666.425 454.731 666.393 457.796 666.453C461.14 666.644 464.5 666.963 467.836 667.474C470.329 667.911 472.781 668.472 475.191 669.156C476.967 669.71 478.693 670.352 480.402 671.074C486.355 673.803 492.046 677.089 497.778 680.251C504.732 684.06 511.644 687.992 518.636 691.734C525.505 695.434 532.607 698.679 539.83 701.612C547.411 704.692 555.018 707.728 562.692 710.596C570.286 713.448 578.066 715.876 585.773 718.38C594.133 721.084 602.466 723.832 611.096 725.454C615.037 726.197 619.023 726.759 622.987 727.308C627.065 727.865 631.143 728.215 635.238 728.487C643.384 729.004 651.516 729.749 659.671 730.095C667.485 730.42 675.312 730.518 683.125 730.843C691.018 731.185 698.868 731.855 706.737 732.596C714.412 733.313 722.113 733.987 729.753 734.919C731.445 735.159 733.137 735.399 734.804 735.683C738.388 736.839 741.994 738.007 745.553 739.207C751.806 741.314 758.031 743.522 764.134 746.044C767.786 747.592 771.423 749.22 774.957 751.025C778.447 752.804 781.908 754.685 785.347 756.552C788.808 758.433 792.27 760.313 795.871 761.95C798.691 763.254 801.626 764.359 804.576 765.384C808.68 767.43 812.899 769.276 817.288 770.778C870.518 791.135 945.036 789.707 983.86 742.969C986.632 739.088 989.016 735.01 990.975 730.747C992.516 728.335 993.822 725.817 995.083 723.274C996.48 720.395 997.787 717.466 998.848 714.453C999.29 713.175 999.732 711.898 1000.15 710.607C1000.17 710.585 1000.19 710.541 1000.2 710.519C1000.34 710.127 1000.48 709.735 1000.56 709.339C1001.88 704.912 1002.84 700.428 1003.24 695.796C1003.53 692.335 1003.6 688.93 1003.18 685.472C1002.84 682.626 1002.44 679.798 1002.06 676.984C1001.77 674.872 1001.45 672.771 1001.14 670.647C1002.16 675.125 1002.91 679.655 1003.35 684.247C1006.69 692.836 1009.78 701.547 1011.45 710.618C1014.54 724.958 1013.75 739.772 1016.83 754.077C1019.28 765.484 1024.01 776.319 1028.35 787.108C1029.78 791.233 1033.67 794.925 1033.44 799.418C1033.41 799.52 1033.38 799.621 1033.35 799.722C1034.65 799.881 1035.92 800.176 1037.16 800.686C1040.52 802.8 1037.1 806.574 1035 805.359C1016.64 801.099 1007.15 821.884 1004.05 836.661C1001.99 849.59 1005.83 862.625 1012 873.937C1019.87 889.86 1031.59 903.202 1044.54 915.189C1050.15 920.552 1055.47 926.275 1061.45 931.259C1063.77 933.837 1070.92 935.873 1068.15 940.167C1064.89 942.738 1057.76 938.323 1052.47 935.005C1050.62 933.852 1049.02 932.805 1047.86 932.254C1032.34 921.908 1019.03 908.95 1006.01 895.712C1001.88 891.915 997.542 889.203 993.106 885.994C991.736 885.35 990.375 884.741 989.002 884.154C998.281 889.099 1006.35 896.144 1009.71 906.577C1012.71 913.704 1017.27 920.078 1019.92 927.355C1027.62 944.709 1019.87 951.378 1002.17 950.533C992.137 949.959 981.123 952.826 971.984 947.638C956.932 931.519 941.974 914.011 922.55 902.856C912.522 897.213 901.42 893.839 891.302 888.352C858.836 872.378 828.797 851.586 802.036 827.263C790.404 817.393 779.143 807.237 766.877 798.209C764.971 797.316 765.155 794.799 766.535 793.738C742.174 785.716 717.453 778.724 692.727 772.407C666.457 766.054 639.984 760.615 613.872 753.527C596.328 749.5 578.529 746.475 561.46 740.599C544.789 734.394 528.179 727.929 511.793 720.973C489.399 710.668 467.766 698.738 445.254 688.688C445.033 688.561 444.802 688.398 444.546 688.279C440.816 689.369 437.059 690.354 433.315 691.316C442.077 708.254 419.968 700.677 411.696 704.214C398.655 712.484 382.739 713.612 367.954 716.719C360.344 717.985 347.091 721.712 339.74 717.467C337.614 716.24 335.985 714.356 335.133 711.536C333.424 711.787 331.727 712.016 330.03 712.245C329.721 711.86 329.491 711.491 329.318 711.126C322.972 711.736 317.497 711.759 315.15 710.403C314.662 710.122 314.328 709.782 314.132 709.404L314.031 709.375ZM772.013 795.604C773.821 796.972 775.54 798.495 777.364 799.784C777.671 799.047 778.032 798.371 778.421 797.8C776.277 797.064 774.156 796.34 772.013 795.604ZM927.95 868.036C916.943 864.6 905.692 861.229 894.716 857.279C904.894 861.741 915.444 865.356 926.234 868.196C933.867 870.215 941.728 871.275 949.57 872.472C942.379 870.914 935.157 869.515 927.959 868.071L927.95 868.036ZM821.329 809.957C822.811 811.225 824.293 812.494 825.8 813.718C824.306 812.266 822.812 810.813 821.318 809.361C821.339 809.58 821.339 809.786 821.316 809.979L821.329 809.957ZM282.71 692.235C286.895 694.651 291.492 696.303 296.077 697.771C296.053 700.115 297.001 702.461 298.895 703.937C299.103 704.087 299.29 704.224 299.486 704.396C292.643 702.391 286.03 699.781 279.733 696.47C277.052 694.569 279.928 690.304 282.71 692.235ZM325.169 594.302C327.416 598.488 325.224 602.234 321.021 603.786C316.758 606.159 312.545 608.649 308.219 610.927C294.396 617.891 278.939 620.934 263.997 624.57C257.38 626.468 218.549 627.807 216.859 621.172C216.707 616.014 224.05 617.513 227.451 616.735C234.023 615.99 240.573 615.026 247.02 613.678C262.412 610.184 282.193 598.525 281.553 580.764C280.604 569.162 268.909 561.702 258.308 559.915C256.8 559.663 255.291 559.617 253.76 559.559C250.714 559.363 250.719 554.649 253.744 554.421C264.013 549.266 275.19 544.43 284.825 537.612C290.152 533.908 294.361 528.969 298.643 524.161C300.977 521.499 306.742 514.481 309.071 520.572C307.862 546.138 316.171 570.714 325.191 594.315L325.169 594.302ZM536.068 502.859C547.809 502.21 556.734 498.667 542.768 489.72C534.002 484.039 529.217 473.201 519.159 469.604C504.131 466.587 489.086 463.649 475.323 456.499C462.575 449.787 450.393 441.84 439.068 432.973C430.001 424.437 423.491 413.162 413.116 406.022C413.834 402.222 414.736 398.409 416.141 394.799C417.676 392.089 413.673 389.512 411.818 392.008C400.659 418.137 410.928 448.473 425.743 471.087C431.857 479.775 438.544 488.087 445.717 495.913C454.105 505.472 464.905 512.385 473.722 521.455C482.243 530.885 482.799 545.059 491.864 554.007C503.169 566.695 524.415 560.067 533.916 548.367C544.202 534.999 539.508 517.816 536.103 502.85L536.068 502.859ZM443.458 284.381C445.281 280.098 451.013 278.249 451.323 272.65C452.055 270.921 454.52 270.487 455.738 271.957C457.372 274.344 455.334 277.413 454.163 279.596C455.019 282.92 443.724 291.284 443.471 284.358L443.458 284.381ZM308.121 53.7903C309.515 54.0351 310.693 55.2163 310.112 57.0917C313.46 69.7541 327.531 74.4292 336.788 82.0728C371.02 108.233 389.171 123.842 379.175 169.743C376.223 184.929 369.137 199.555 370.092 215.287C370.208 216.416 370.369 217.57 370.612 218.683C370.987 219.312 371.384 219.954 371.819 220.529C372.412 221.343 373.078 222.082 373.865 222.713C373.932 222.751 374.008 222.824 374.061 222.885C374.248 223.022 374.412 223.146 374.599 223.284C374.994 223.571 375.424 223.848 375.845 224.091C377.306 224.935 378.889 225.466 380.655 225.63C382.67 225.821 384.942 225.364 386.834 224.541C376.116 242.288 367.394 254.172 388.206 275.502C390.331 277.702 392.491 279.892 395.107 281.55C395.493 281.802 395.926 282.023 396.347 282.266C397.568 282.912 398.799 283.593 399.104 285.007C399.393 289.212 394.645 287.975 392.222 286.752C388.005 285.261 383.853 284.013 379.478 283.256C367.027 279.457 367.658 299.689 361.524 296.147C360.661 295.649 359.653 294.684 358.476 293.091C331.217 249.586 328.359 233.109 342.024 183.666C344.875 168.245 349.687 151.627 344.437 136.275C334.617 114.777 326.934 112.846 320.313 111.529C315.571 110.589 311.372 109.934 307.282 102.65C302.642 88.7991 295.288 72.4384 302.119 58.2542C301.81 56.8969 301.799 55.7407 302.015 54.8042C301.9 53.2641 302.852 52.2807 303.959 51.9475C305.847 50.8264 308.288 51.558 308.068 53.7299L308.121 53.7903Z" fill="#725348"/>
<path fill-rule="evenodd" clip-rule="evenodd" d="M447.518 329.201C439.351 322.687 448.434 314.932 456.015 314.74C462.752 314.68 470.25 317.801 474.542 323.049C476.763 322.475 478.281 320.256 480.52 319.957C481.06 319.532 481.771 319.323 482.452 319.422C487.37 320.876 483.069 327.559 480.794 329.813C471.579 337.846 456.965 335.952 447.518 329.201ZM453.973 325.794C454.542 326.035 455.112 326.275 455.695 326.493C456.695 326.806 457.709 327.096 458.7 327.374C460.033 323.633 465.943 325.925 469.042 324.649C464.564 321.563 458.752 318.59 453.263 320.58C453.626 321.025 453.833 321.587 453.822 322.17C453.833 323.326 453.091 324.253 452.062 324.603C452.641 325.084 453.261 325.442 453.916 325.791L453.973 325.794Z" fill="#735349"/>
<path fill-rule="evenodd" clip-rule="evenodd" d="M863.417 591.927C875.522 607.729 826.381 604.885 820.617 599.169C813.498 592.937 824.743 587.727 830.353 587.163C841.255 585.617 853.888 585.777 863.417 591.927ZM651.131 573.829C646.564 571.104 642.063 568.211 637.786 565.034C635.598 563.299 633.484 561.489 631.418 559.648C631.102 559.377 630.773 559.128 630.432 558.901C630.363 558.508 630.273 558.102 630.227 557.722C630.218 557.481 630.197 557.262 630.188 557.022C631.251 555.13 633.653 553.834 637.866 553.849C640.382 554.093 642.901 554.486 645.391 554.981C646.154 555.244 646.93 555.486 647.693 555.75C653.981 557.847 660.298 559.844 666.695 561.651C672.854 563.409 679.078 564.85 685.357 566.147C691.433 567.385 697.476 568.781 703.556 569.962C710.211 571.27 716.896 572.477 723.578 573.534C729.873 574.545 736.246 575.218 742.561 576.093C743.572 576.235 744.605 576.389 745.615 576.53C757.54 578.581 769.48 580.198 781.492 580.972C787.533 581.247 793.911 581.451 799.621 583.834C807.214 587.098 804.473 593.739 797.8 595.989C762.434 609.38 723.123 600.862 688.151 590.251C683.456 588.719 678.661 587.307 673.88 585.872C673.089 585.504 672.32 585.149 671.541 584.758C669.149 583.583 666.843 582.311 664.501 581.047C660.062 578.661 655.582 576.399 651.242 573.893L651.131 573.829Z" fill="#AE8F85"/>
<path fill-rule="evenodd" clip-rule="evenodd" d="M392.813 603.141C393.545 606.424 395.696 610.318 392.994 613.209C385.495 620.317 378.056 627.576 368.957 632.699C363.645 634.997 355.57 642.538 350.331 637.244C344.23 630.833 340.047 622.788 335.821 615.072C332.891 612.732 332.112 608.508 330.45 605.25C326.9 596.568 323.398 587.855 320.013 579.092C309.87 550.892 308.241 520.269 306.38 490.661C299.62 479.359 329.878 489.695 333.301 491.848C364.731 507.519 383.418 540.916 387.593 574.954C389.209 584.377 390.397 593.876 392.8 603.164L392.813 603.141ZM1114.67 920.541C1113.07 923.361 1110.16 924.924 1107.39 926.357C1106.81 927.501 1107.13 929.213 1106.78 930.519C1106.05 935.315 1102.27 938.231 1098.19 940.238C1099.17 943.661 1096.6 947.189 1093.74 948.869C1088.38 951.758 1081.79 950.752 1076.27 948.861C1070.52 946.842 1064.82 944.551 1059.6 941.42C1053.7 937.573 1048.59 932.56 1043.32 927.985C1039.95 925.091 1036.54 922.242 1032.94 919.632C1031.96 918.829 1032.32 917.592 1033.16 917.105C1031.23 916.668 1029.33 916.072 1027.46 915.467C1026.05 914.74 1022.8 914.394 1023.5 912.206C1023.81 911.469 1024.74 911.034 1025.48 911.377C1026.59 911.867 1027.71 912.335 1028.84 912.724C1032.45 913.893 1036.14 914.849 1039.94 915.069C1047.45 915.57 1055.06 914.041 1061.74 910.613C1068.83 907.074 1075.77 902.117 1079.31 894.85C1081.42 890.436 1083.14 885.62 1083.51 880.734C1083.56 879.822 1083.56 878.907 1083.48 878.01C1083.43 877.538 1083.41 877.056 1083.67 876.614C1084.08 875.907 1085.03 875.633 1085.76 876.055C1086.53 876.41 1086.71 878.103 1086.61 879.962C1088.17 880.537 1089.13 882.094 1090.29 883.205C1092.41 885.519 1094.62 887.77 1096.79 890.052C1099.98 893.461 1103.34 896.754 1106.16 900.506C1108.04 902.977 1109.68 905.605 1111.4 908.215C1113.67 911.796 1117.25 916.281 1114.67 920.598L1114.67 920.541ZM813.365 798.844C815.006 802.65 824.06 808.497 818.329 811.673C814.221 812.396 810.058 809.992 806.041 809.177C795.199 805.865 784.102 803.555 773.24 800.379C751.58 794.683 729.525 790.645 707.695 786.265C684.795 782.359 662.027 776.435 639.473 771.52C618.092 767.694 597.143 761.996 575.768 758.056C539.734 749.897 503.232 741.527 469.911 725.09C460.531 720.676 451.359 715.852 441.819 711.818C440.725 711.157 439.475 710.612 438.202 710.054C437.041 709.561 435.892 709.045 434.829 708.431C433.301 707.549 432.037 706.465 431.33 704.878C430.644 701.77 434.069 700.594 436.217 699.328C431.444 692.151 443.583 691.938 447.862 690.459C447.81 685.742 465.049 680.072 471.412 677.437C471.514 677.261 471.581 677.093 471.693 676.951C471.908 676.987 472.124 677.023 472.339 677.059C472.906 677.151 473.496 677.255 474.063 677.347C474.63 677.438 475.197 677.53 475.786 677.634C478.372 678.066 480.966 678.532 483.548 679.021C484.274 679.145 485.008 679.304 485.734 679.428C486.187 679.512 486.64 679.597 487.08 679.704C487.476 679.785 487.872 679.866 488.268 679.948C488.29 679.96 488.312 679.973 488.347 679.964C488.721 680.032 489.104 680.136 489.478 680.204C489.852 680.273 490.235 680.376 490.609 680.444C493.941 681.219 497.312 681.926 500.66 682.622C501.135 682.719 501.61 682.817 502.108 682.927C503.555 683.232 504.981 683.524 506.416 683.852C506.891 683.949 507.388 684.06 507.851 684.179C508.81 684.409 509.761 684.604 510.708 684.856C511.667 685.086 512.614 685.338 513.552 685.555C514.318 685.761 515.072 685.99 515.825 686.219C516.399 686.402 516.962 686.551 517.536 686.735C518.109 686.918 518.66 687.089 519.233 687.272C519.603 687.398 519.974 687.523 520.344 687.649C521.455 688.025 522.589 688.414 523.7 688.79C524.071 688.916 524.441 689.041 524.821 689.202C525.562 689.453 526.312 689.738 527.04 690.011C528.531 690.548 530.01 691.107 531.488 691.666C538.969 694.511 546.424 697.4 553.84 700.356C554.322 700.545 554.803 700.734 555.284 700.924C555.765 701.113 556.246 701.302 556.727 701.492C557.443 701.787 558.158 702.082 558.886 702.355C561.045 703.218 563.169 704.091 565.315 704.976C565.315 704.976 565.337 704.989 565.359 705.002C566.287 705.39 567.249 705.768 568.189 706.134C568.189 706.134 568.211 706.147 568.234 706.16C569.174 706.526 570.079 706.901 571.019 707.267C572.944 708.025 574.869 708.782 576.828 709.53C577.119 709.639 577.388 709.736 577.667 709.867C578.002 710.002 578.351 710.115 578.708 710.262C580.602 710.972 582.485 711.647 584.395 712.278C592.566 715.05 600.976 717.105 609.392 719.046C609.99 719.185 610.567 719.311 611.165 719.451C611.742 719.577 612.296 719.691 612.873 719.817C612.895 719.83 612.917 719.843 612.952 719.834C619.601 721.255 626.286 722.462 632.983 723.646C640.973 725.046 649.005 726.323 657.002 727.609C664.761 728.846 672.488 730.242 680.224 731.672C688.891 733.434 697.578 735.059 706.225 736.957C716.102 739.181 725.862 742.016 735.391 745.454C739.089 746.822 742.751 748.2 746.344 749.803C749.901 751.414 753.439 753.162 756.916 754.963C760.102 756.655 763.237 758.436 766.26 760.358C768.534 761.789 770.748 763.273 772.936 764.802C773.442 765.153 773.948 765.504 774.463 765.89C774.485 765.903 774.53 765.928 774.552 765.941C774.596 765.967 774.663 766.005 774.707 766.031C774.729 766.043 774.773 766.069 774.795 766.082C774.795 766.082 774.84 766.107 774.862 766.12C774.973 766.184 775.105 766.261 775.226 766.36C776.971 767.632 778.681 768.915 780.366 770.241C781.197 770.898 782.05 771.568 782.882 772.224C783.713 772.881 784.554 773.573 785.385 774.23C788.947 777.112 792.522 779.971 796.049 782.863C796.463 783.219 796.89 783.554 797.326 783.924C797.74 784.281 798.166 784.616 798.603 784.985C800.142 786.257 801.646 787.538 803.172 788.832C804.165 789.67 805.179 790.521 806.171 791.36C807.666 792.606 809.174 793.83 810.681 795.054C811.641 796.256 812.574 797.503 813.46 798.781L813.365 798.844ZM450.204 318.871C449.346 311.154 488.481 310.668 479.088 320.544C476.574 323.927 471.526 321.778 467.959 322.843C463.073 322.97 450.973 325.977 450.192 318.893L450.204 318.871ZM357.794 290.691C358.644 292.184 358.896 294.305 356.61 294.429C355.46 294.325 354.318 293.489 353.369 293.088C351.378 292.293 349.195 291.062 347.006 291.478C345.97 292.148 346.414 293.73 346.559 294.758C346.816 296.409 347.96 298.16 347.187 299.807C345.923 301.995 343.075 300.587 341.126 300.434C340.375 300.355 339.689 300.725 338.978 300.933C337.271 301.333 335.786 300.122 334.416 299.272C318.884 288.536 310.46 282.11 301.902 264.612C297.22 253.597 294.785 241.756 293.184 229.955C292.22 223.444 291.639 216.83 292.361 210.261C293.731 197.404 299.393 185.552 302.221 173.035C304.97 161.83 308.274 150.738 309.699 139.269C310.975 129.541 310.99 119.646 310.345 109.87C309.616 109.037 310.186 107.538 311.315 107.424C312.777 107.295 314.263 107.534 315.675 107.848C320.709 108.898 324.683 111.782 328.622 114.881C332.506 117.92 336.476 121.066 339.289 125.196C344.369 133.169 346.762 143.394 347.501 152.752C347.788 159.108 346.429 165.398 345.35 171.613C341.611 192.358 332.349 212.39 332.877 233.771C333.493 240.169 334.82 246.565 336.991 252.623C340.12 261.062 345.336 268.495 349.834 276.25C352.691 280.966 355.571 285.694 357.838 290.717L357.794 290.691ZM460.282 476.053C461.31 476.676 462.338 477.299 463.379 477.9C464.331 478.449 465.284 478.999 466.274 479.483C468.419 480.574 470.888 478.344 470.49 476.169C470.692 474.694 469.722 473.102 467.282 472.725C455.05 465.427 445.519 454.117 441.246 440.449C436.394 428.039 431.766 414.578 433.243 401.075C443.376 421.929 459.574 441.893 479.252 454.345C483.636 457.082 488.147 459.598 492.735 461.982C492.775 462.27 492.85 462.549 492.96 462.819C502.13 470 518.021 472.749 529.653 472.802C536.991 473.03 543.689 470.737 549.921 467.408C552.679 469.177 559.155 468.494 561.715 468.764C570.886 468.222 580.248 464.637 586.02 457.299C591.879 450.424 593.515 441.199 596.244 432.841C598.388 426.621 599.818 419.695 597.261 413.59C597.08 412.778 596.886 411.989 596.636 411.195C593.346 403.342 587.272 398.214 580.236 394.24C576.012 391.33 571.488 388.835 566.998 386.538C559.227 382.611 550.763 379.935 543.878 374.575C532.59 363.342 526.335 347.174 517.915 333.734C517.293 333.022 516.67 331.954 515.992 330.826C515.97 330.813 515.951 330.743 515.942 330.709C515.545 330.067 515.142 329.333 514.752 328.577C513.948 327.258 513.18 325.93 512.471 324.549C511.905 323.485 511.408 322.402 510.959 321.288C510.742 320.691 510.526 320.095 510.344 319.489C510.147 318.756 510.042 318.017 510.051 317.286C510.029 317.273 510.007 317.26 509.985 317.247C502.725 312.997 494.51 319.249 493.185 326.708C489.751 346.361 502.521 373.336 471.997 375.374C464.806 375.555 457.704 375.021 450.554 373.546C441.411 371.893 430.619 366.959 421.538 371.591C406.482 379.464 409.128 400.093 411.982 414.121C417.3 440.861 437.907 461.778 460.178 476.081L460.282 476.053ZM272.589 622.573C273.016 622.702 273.434 622.796 273.862 622.925C273.351 623.809 272.423 624.393 271.092 624.244C270.037 624.077 268.982 623.91 267.931 623.686C256.191 624.69 244.457 625.019 232.705 624.1C226.823 623.652 220.987 622.611 215.244 621.359C207.744 619.416 199.614 618.26 192.838 614.347C192.462 614.13 192.085 613.913 191.699 613.661C189.976 612.4 188.931 610.529 188.13 608.593C186.819 607.335 185.164 606.468 183.522 605.579C181.136 604.29 178.716 603.011 177.292 600.567C174.25 595.303 177.963 594.293 171.785 590.52C162.424 573.648 193.823 566.515 205.563 567.811C205.678 567.818 205.814 567.838 205.915 567.867C205.919 567.81 205.909 567.775 205.913 567.718C206.473 564.445 209.768 564.314 211.343 566.137C211.603 566.965 211.885 567.806 212.18 568.624C212.176 568.681 212.182 568.773 212.179 568.83C213.627 574.147 216.222 578.858 219.471 583.151C221.463 586.04 223.695 588.773 225.973 591.474C230.096 596.3 234.539 600.929 239.504 604.857C243.737 608.214 248.195 611.231 252.868 613.928C253.997 614.58 255.126 615.232 256.272 615.805C261.445 618.556 266.936 620.96 272.589 622.573ZM361.244 718.828C359.328 718.311 357.45 717.728 355.554 717.075C352.422 716.005 349.38 714.779 346.396 713.351C344.371 712.358 342.368 711.379 340.419 710.254C339.489 709.717 338.55 709.145 337.658 708.542C333.266 705.564 329.062 702.311 325.055 698.819C324.802 698.643 324.562 698.445 324.309 698.27C314.885 691.325 306.458 683.011 301.613 672.226C298.97 667.752 297.844 662.799 297.904 657.734C296.723 654.871 292.348 655.646 292.011 658.635C279.062 655.698 248.387 660.656 252.091 678.889C255.662 687.023 261.894 693.156 268.47 698.898C271.947 704.177 275.863 709.002 281.593 712.016C282.023 712.294 282.466 712.549 282.931 712.818C290.105 716.96 298.563 718.011 306.753 718.348C324.292 719.778 342.02 723.027 359.605 720.593C360.494 720.075 361.023 719.467 361.266 718.841L361.244 718.828Z" fill="#FDC196"/>
<path fill-rule="evenodd" clip-rule="evenodd" d="M1049.87 968.907C1050.53 971.91 1050.36 975.526 1047.84 977.639C1046.71 978.84 1045.06 979.449 1043.95 980.641C1043.71 981.267 1043.52 981.861 1043.36 982.332C1042.45 985.4 1039.99 987.757 1037.56 989.715C1034.53 992.151 1030.63 992.783 1027.15 994.254C1024.18 1001.8 1013.26 998.262 1008.09 995.043C996.593 986.989 988.991 974.995 981.29 963.533C977.703 957.984 973.558 953.144 969.364 948.187C968.173 947.795 967.066 947.156 965.927 946.675C965.099 946.727 964.376 945.986 964.366 945.184C964.36 944.326 965.028 943.68 965.856 943.627C966.902 943.553 967.755 944.223 968.683 944.611C970.61 945.517 972.685 946.066 974.791 946.457C982.055 947.939 989.611 946.613 996.503 944.137C1006.15 940.569 1016.75 933.661 1018.15 922.648C1018.2 921.438 1019.85 920.772 1020.73 921.66C1022.11 923.461 1023.43 925.371 1024.43 927.422C1027.24 934.057 1032.32 939.228 1036.59 944.91C1040.26 949.858 1043.37 955.161 1046.29 960.589C1047.71 963.238 1049.17 965.935 1049.85 968.894L1049.87 968.907ZM433.846 456.133C429.722 451.718 426.203 446.768 423.395 441.403C421.42 438.023 419.671 434.507 417.991 430.973C415.623 425.921 413.506 420.69 412.283 415.238C412.042 413.714 411.111 410.11 411.111 407.399L411.055 407.19C411.055 407.19 411.081 407.145 411.071 407.11C411.049 407.098 411.04 407.063 411.03 407.028C411.011 406.958 410.993 406.888 410.974 406.818C410.936 406.679 410.921 406.552 410.871 406.435C410.872 406.023 411.067 405.634 411.382 405.344C411.465 405.098 411.58 404.899 411.717 404.713C411.967 404.179 412.292 403.718 412.866 403.49C413.885 403.105 415.027 402.969 416.03 403.43C419.51 403.08 423.053 403.387 426.542 402.866C433.009 401.943 432.509 406.134 433.562 410.958C436.15 424.066 439.979 437.124 446.767 448.736C451.941 457.825 458.498 466.209 466.206 473.313C468.352 475.17 470.574 476.895 472.733 478.731C473.857 479.852 475.926 480.87 475.599 482.715C475.307 483.784 474.107 484.123 473.1 483.925C469.294 483.408 465.81 481.721 462.489 479.803C461.692 479.343 460.917 478.895 460.154 478.426C456.014 475.829 451.919 473.052 447.983 470.102C444.191 466.851 440.654 463.364 437.18 459.767C436.05 458.554 434.919 457.342 433.824 456.12L433.846 456.133ZM449.225 321.696C447.847 321.372 447.713 319.202 449.15 318.911C449.822 318.769 450.542 318.801 451.249 318.855C449.526 317.595 451.446 315.344 453.057 316.746C456.403 318.058 460.131 318.147 463.694 318.318C467.342 318.39 470.986 318.165 474.596 317.538C475.903 317.32 477.191 317.032 478.47 316.709C479.628 316.493 480.991 315.718 482.075 316.55C485.267 320.073 475.221 322.438 472.934 322.768C467.617 323.796 462.156 323.384 456.789 323.322C455.172 323.361 453.546 323.365 451.926 323.256C450.826 323.269 449.185 323.146 449.225 321.696ZM596.983 427.933C596.691 426.29 594.97 425.385 593.612 426.458C590.995 428.69 588.241 430.903 584.956 432.042C583.321 432.572 581.572 433.301 579.823 432.852C577.986 432.558 578.142 430.702 577.144 429.566C575.406 428.179 574.252 430.638 573.281 431.757C571.908 433.47 570.301 435.077 568.567 436.7C554.373 450.494 533.846 456.388 514.342 453.145C496.901 450.268 480.944 441.291 467.112 430.475C458.808 423.942 450.251 417.439 444.057 408.734C442.206 406.162 440.641 403.401 439.524 400.428C439.115 399.396 438.791 397.912 437.431 397.864C437.431 397.864 437.431 397.864 437.409 397.851C436.154 397.775 435.374 399.535 436.585 400.352C436.613 400.457 436.676 400.552 436.704 400.657C436.213 401.611 436.703 402.808 436.572 403.852C436.178 408.165 437.798 412.519 439.771 416.311C444.067 425.748 451.552 433.135 458.833 440.316C462.282 443.751 465.594 447.373 469.456 450.399C476.035 455.317 483.063 459.611 490.082 463.869C502.549 471.067 517.514 474.755 531.815 472.076C534.94 471.522 538.04 470.807 541.065 469.812C544.449 468.758 547.53 467.001 550.914 465.947C551.853 465.753 552.62 465.753 553.563 466.062C559.766 468.258 565.99 468.727 572.031 465.73C579.403 462.116 585.552 455.555 589.921 448.704C592.812 443.8 598.221 433.511 597.031 427.901L596.983 427.933ZM198.413 596.461C198.413 596.461 198.403 596.632 198.374 596.733C200.956 602.233 206.853 605.52 212.062 608.055C212.951 608.51 213.843 608.907 214.771 609.295C218.678 610.608 222.675 611.559 226.746 612.23C228.35 612.419 229.991 612.541 231.592 612.581C236.762 612.883 241.939 612.866 247.092 612.48C248.217 612.423 249.321 612.352 250.434 612.317C250.655 612.445 250.902 612.528 251.159 612.647C251.627 612.858 252.083 613.092 252.551 613.303C254.58 614.239 256.63 615.187 258.672 616.1C261.365 617.419 264.083 618.694 266.844 619.64C268.009 620.076 269.831 620.244 269.863 621.825C269.766 625.011 259.59 624.943 257.087 625.237C251.329 625.597 245.567 625.042 239.841 624.477C231.373 623.597 222.853 623.217 214.438 621.837C207.667 620.934 200.724 619.254 194.768 615.815C193.395 615.023 192.051 614.129 190.793 613.137C189.437 612.06 188.907 610.369 187.993 608.986C187.22 608.127 186.175 607.583 185.166 607.03C184.679 606.748 184.179 606.489 183.705 606.186C181.276 604.666 178.813 602.949 177.179 600.561C176.401 599.404 175.791 598.109 175.447 596.761C175.229 595.603 174.977 594.456 174.111 593.602C172.994 592.367 171.504 591.419 170.784 589.854C169.691 588.014 169.436 585.745 170.084 583.702C170.558 582.472 171.1 580.869 172.351 580.235C172.02 579.071 171.62 577.514 172.536 576.54C173.093 576.036 173.93 576.018 174.47 576.565C175.197 577.25 174.598 578.083 174.826 578.864C175.319 581.743 178.113 582.324 180.488 583.017C181.987 584.001 181.7 586.134 182.367 587.639C183.485 591.173 186.33 594.172 190.081 594.834C192.736 595.453 194.591 593.518 196.171 594.872C196.48 594.49 196.928 594.277 197.511 594.29C198.57 594.4 199.062 595.745 198.41 596.518L198.413 596.461ZM281.37 689.75C282.576 691.803 284.501 693.533 286.185 695.065C290.599 698.822 296.245 701.316 301.702 702.963C309.579 705.683 317.965 706.398 326.255 706.203C328.319 706.157 330.383 706.11 332.4 705.889C332.791 705.673 333.223 705.539 333.609 705.585C334.084 705.889 334.536 706.179 335.011 706.483C335.188 706.585 335.387 706.7 335.564 706.802C335.561 706.859 335.57 706.894 335.567 706.951C336.711 707.936 337.975 708.813 339.181 709.539L339.203 709.551C340.174 710.171 341.145 710.79 342.106 711.375C342.925 711.848 343.78 712.312 344.624 712.741C348.821 714.574 353.226 715.997 357.531 717.54C358.62 718.109 358.369 719.821 357.173 720.103C356.976 720.137 356.815 720.162 356.618 720.196C356.345 720.362 355.999 720.398 355.616 720.295C355.029 720.339 354.42 720.371 353.843 720.451C349.603 720.891 345.381 721.402 341.127 721.51C329.735 721.654 318.287 723.533 306.965 721.359C297.245 719.579 287.786 716.122 279.216 711.175C278.109 710.535 276.992 709.861 275.911 709.178C271.667 706.403 266.409 703.544 267.366 697.642C267.34 696.919 266.644 696.488 266.116 696.124C261.355 693.581 255.731 690.128 255.661 684.163C253.146 682.947 251.115 681.656 251.035 678.574C250.291 673.93 252.372 669.354 255.884 666.34C256.211 666.028 256.634 665.654 257.089 665.326C256.859 663.985 257.021 662.428 258.177 661.651C259.731 660.75 261.321 662.906 259.779 663.991C259.497 665.656 260.826 667.189 262.343 667.682C263.229 667.987 264.308 667.755 265.047 668.418C266.232 669.485 265.049 671.278 264.93 672.507C264.477 675.133 265.16 678.092 267.242 679.855C269.754 682.101 273.022 683.192 276.324 683.506C277.807 683.802 279.761 683.486 280.831 684.752C281.704 686.052 280.516 687.548 281.084 688.966C281.15 689.211 281.238 689.468 281.316 689.69L281.37 689.75ZM1087.17 931.458C1086.67 931.142 1086.18 930.826 1085.68 930.51C1084.93 930.075 1084.18 929.64 1083.45 929.162C1082.16 928.42 1079.9 926.315 1081.98 925.16C1082.4 924.991 1082.79 925.037 1083.1 925.216C1084.05 924.736 1085.32 925.671 1085.03 926.775C1085.65 927.19 1086.27 927.605 1086.88 928.02C1087.3 928.263 1087.75 928.461 1088.16 928.669C1088.79 926.557 1091.09 928.298 1092.54 928.34C1096.26 929.069 1099.73 929.451 1103.41 928.954C1105 928.902 1106.69 927.815 1108.25 928.504C1109.55 929.372 1108.81 930.689 1107.79 931.393C1107.83 931.476 1107.86 931.581 1107.85 931.695C1107.85 933.696 1105.14 934.551 1103.57 935.119C1097.9 936.8 1091.92 934.584 1087.18 931.436L1087.17 931.458ZM1039.46 914.937C1041.04 914.964 1042.62 914.934 1044.19 914.778C1044.73 914.708 1045.16 914.986 1045.42 915.402C1045.69 915.406 1045.95 915.468 1046.17 915.596L1046.66 915.557C1049.12 918.36 1051.85 920.883 1054.43 923.579C1063.69 932.962 1075.09 940.462 1087.85 943.993C1089.73 944.519 1091.69 944.706 1093.63 944.973C1096.2 945.278 1096.84 948.92 1094.49 950.036C1085.55 952.068 1076.36 948.856 1068.48 944.305C1066.95 943.423 1065.48 942.487 1064.05 941.542C1061.9 940.153 1059.79 938.732 1058.05 937.403C1055.31 935.349 1052.73 933.121 1050.2 930.805C1043.37 928.16 1037.28 922.699 1031.55 918.507C1030.11 916.91 1026.66 916.037 1025.97 914.016C1026.53 914.164 1027.07 914.3 1027.65 914.427C1027.36 914.26 1027.06 914.116 1026.74 913.959C1026.1 913.589 1025.95 912.676 1026.35 912.082C1027.29 910.709 1028.7 912.053 1029.72 912.435C1032.84 913.62 1036.24 914.49 1039.45 914.959L1039.46 914.937ZM820.7 807.825C822.198 809.014 823.417 811.25 821.819 812.892C818.399 815.339 813.777 811.992 810.169 811.236C790.392 804.681 770.876 797.01 750.3 793.325C727.897 790.501 705.64 786.759 683.678 781.331C642.337 771.729 600.482 764.602 559.363 753.949C541.194 749.826 523.148 744.979 505.234 739.853C479.876 731.05 455.031 720.183 431.943 706.529C428.909 703.244 433.758 701.033 435.241 698.618C430.334 690.037 446.657 690.913 451.54 689.104C451.104 686.228 452.109 685.305 453.924 685.587C453.901 683.481 456.742 682.292 458.227 683.709C485.578 703.48 516.065 718.075 548.535 727.241C585.394 738.676 623.232 747.493 661.325 753.363C705.99 760.993 752.774 763.419 794.04 783.737C797.619 785.567 809.545 793.19 811.505 798.182C814.749 801.205 817.65 804.619 820.652 807.856L820.7 807.825ZM372.419 623.586C372.906 624.073 373.401 624.595 373.91 625.095C375.31 626.404 374.697 628.232 373.467 629.084C370.852 633.204 365.027 636.031 361.644 639.59C358.266 643.446 353.702 643.17 349.893 640.971C348.277 640.037 346.817 638.782 345.608 637.347C340.476 631.201 336.028 624.535 332.139 617.515C332.464 616.287 332.529 614.999 332.344 613.683C332.116 611.93 331.52 610.201 331.003 608.488C330.599 607.193 330.195 605.899 329.791 604.604C329.142 602.608 328.493 600.613 327.845 598.617C327.118 596.399 326.4 594.216 325.673 591.998C324.76 589.231 324.046 586.225 322.533 583.73C321.888 582.65 320.851 581.786 319.709 581.156C318.525 577.377 317.398 573.602 316.318 569.795C315.537 566.751 314.769 563.684 314.045 560.642C313.33 557.635 312.65 554.62 312.11 551.566C311.489 548.142 310.947 544.734 310.395 541.291C309.931 538.311 309.467 535.331 309.015 532.329C308.853 529.848 308.713 527.38 308.539 524.921C308.805 521.596 306.757 515.786 309.134 513.356C307.49 507.101 306.417 500.675 305.94 494.239C306.056 491.328 303.829 485.827 308.117 485.355C308.358 485.347 308.573 485.383 308.754 485.428C308.89 486.215 309.017 486.966 309.154 487.752C310.256 493.871 311.52 499.966 312.715 506.079C313.937 512.297 315.417 518.428 317.141 524.493C318.972 530.885 320.964 537.253 323.496 543.402C325.855 549.185 328.462 554.847 331.174 560.48C333.863 566.101 336.788 571.621 339.842 577.069C342.875 582.505 346.267 587.676 349.811 592.788C350.158 593.312 350.539 593.827 350.886 594.352C354.917 600.717 359.221 606.916 363.802 612.892C365.386 615.722 369.932 619.968 372.416 623.643L372.419 623.586ZM326.628 293.332C325.853 292.118 326.233 290.539 327.39 289.763C331.399 282.409 321.684 268.399 319.437 260.735C312.341 243.314 311.401 224.231 315.28 205.955C321.392 182.482 327.585 154.931 313.432 133.112C312.487 131.682 311.16 130.503 309.947 129.331C309.114 128.114 309.643 126.533 310.708 125.762C310.664 125.736 310.642 125.724 310.61 125.676C309.88 125.254 309.388 124.469 309.337 123.585C309.293 122.793 309.644 122.082 310.179 121.565C309.596 115.569 308.998 101.724 318.693 107.586C325.151 110.667 331.704 114.096 336.572 119.471C346.005 130.901 350.169 146.599 347.711 161.186C344.314 186.962 330.993 211.519 334.939 238.027C335.601 247.311 339.263 255.851 343.896 263.832C348.206 271.862 355.063 278.651 357.556 287.577C358.513 290.164 357.88 294.278 354.327 293.937C351.726 293.585 349.794 291.408 347.263 290.831C348.283 294.485 349.522 302.157 343.211 299.28C340.931 297.964 338.702 300.391 336.332 299.229C333.713 297.629 330.261 296.756 328.187 294.467C327.598 294.363 327.022 294.031 326.558 293.35L326.628 293.332Z" fill="#E4A272"/>
<path fill-rule="evenodd" clip-rule="evenodd" d="M599.75 399.257C611.472 405.495 601.421 416.051 594.67 421.557C590.548 425.219 586.233 428.653 581.899 432.017C582.062 433.525 580.115 434.288 579.2 433.112C578.767 432.891 578.474 432.427 578.4 431.942C576.281 428.656 574.541 425.175 572.423 421.889C569.87 418.027 567.495 414.061 565.51 409.879C563.476 405.374 559.167 397.905 562.576 393.329C566.42 388.563 572.927 391.612 577.817 392.755C584.988 395.421 592.906 395.719 599.763 399.235L599.75 399.257Z" fill="#775C63"/>
<path fill-rule="evenodd" clip-rule="evenodd" d="M603.162 414.315C602.096 417.031 600.252 419.356 598.237 421.464C594.313 425.448 589.872 428.897 585.042 431.739C582.946 432.71 579.428 435.837 577.373 433.619C575.9 431.619 575.041 428.912 573.908 426.784C571.84 422.849 570.033 418.769 567.904 414.887C566.32 412.057 564.806 409.208 563.692 406.177C563.513 405.72 563.591 405.175 563.887 404.816C562.048 402.427 561.01 399.47 560.659 396.497C560.564 394.821 560.01 390.462 562.856 391.516C563.498 391.887 563.723 392.724 563.388 393.356C563.356 393.514 563.358 393.663 563.361 393.812C562.608 403.606 572.017 409.451 580.209 412.087C583.847 413.303 587.891 413.457 591.488 412.085C593.545 411.386 595.622 410.551 597.244 409.071C598.682 407.808 599.883 406.291 600.995 404.722C601.448 404.04 601.992 403.352 602.845 403.255C606.808 403.244 603.883 412.197 603.149 414.337L603.162 414.315Z" fill="#584449"/>
<path fill-rule="evenodd" clip-rule="evenodd" d="M575.737 400.398C572.535 398.785 568.696 394.387 573.719 392.335C575.265 391.96 580.506 390.859 580.662 393.248C584.577 394.035 592.764 395.401 594.814 399.061C595.656 401.08 594.002 402.513 592.118 402.81C586.623 403.941 580.631 403.223 575.737 400.398Z" fill="#C8ABB3"/>
<path fill-rule="evenodd" clip-rule="evenodd" d="M541.169 536.371C539.615 542.489 536.55 548.206 531.646 552.302C522.606 560.289 514.635 559.931 504.579 553.978C495.371 547.63 491.242 534.428 487.885 524.236C485.098 516.024 482.961 507.657 479.706 499.588C474.115 485.749 469.827 471.187 461.288 458.771C458.983 455.553 456.401 452.559 453.892 449.489C449.529 444.671 444.533 440.284 441.62 434.386C440.848 434.854 439.746 434.513 439.419 433.646C438.974 432.269 438.691 430.868 438.281 429.481C437.093 424.993 435.953 420.473 434.778 415.963C434.434 414.615 434.069 413.254 433.738 411.884C433.32 410.818 433.24 409.268 434.611 408.94C436.613 408.592 436.891 411.229 437.685 412.513C438.595 414.364 439.621 416.165 440.743 417.904C442.499 420.539 444.506 422.995 446.479 425.46C449.327 429.168 452.151 432.92 455.168 436.49C458.31 440.662 462.076 444.162 466.045 447.515C471.906 452.756 478.168 457.609 484.886 461.724C490.012 465.067 495.774 467.156 501.421 469.443C507.169 471.199 512.916 472.955 518.77 474.271C521.97 474.763 524.515 476.439 526.363 479.068C530.26 484.03 532.943 489.764 535.372 495.529C539.172 504.032 542.15 513.091 542.787 522.419C543.045 527.137 542.558 531.867 541.112 536.367L541.169 536.371Z" fill="#F5766F"/>
<path fill-rule="evenodd" clip-rule="evenodd" d="M532.12 486.43C532.524 486.958 532.778 487.694 532.398 488.3C531.802 489.282 530.645 489.086 529.909 488.366C526.186 485.509 520.415 483.946 515.441 484.788C517.021 487.882 518.245 491.182 518.946 494.623C519.757 498.127 519.838 501.771 519.91 505.379C519.88 507.631 519.995 509.937 519.52 512.14C519.203 513.047 518.036 513.228 517.356 512.718C516.667 512.939 515.803 512.646 515.587 511.844C515.163 508.386 514.694 504.902 513.806 501.53C513.216 499.893 512.709 498.215 512.237 496.527C511.144 493.715 510.067 490.824 508.883 488.017C507.929 488.646 506.918 488.71 505.949 487.473C504.763 486.051 503.525 484.718 501.972 483.674C497.054 480.481 488.476 478.77 482.864 480.718C480.032 481.736 476.969 483.564 476.469 486.783C475.99 488.481 473.415 487.879 473.818 486.107C473.998 485.386 474.166 484.687 474.491 484.02C473.68 483.021 473.442 481.645 472.878 480.524C472.363 479.372 471.847 478.219 471.297 477.076C468.714 471.576 466.67 465.503 463.316 460.471C460.228 455.593 456.3 451.35 452.2 447.303C449.37 444.432 446.779 441.403 444.118 438.392C441.384 435.252 438.047 432.441 436.222 428.646C435.125 426.097 434.613 423.354 434.166 420.65C433.828 418.627 433.421 416.623 433.244 414.576C433.156 413.552 433.034 412.332 433.602 411.451C434.65 409.993 436.254 410.949 436.956 412.238C440.254 417.827 444.112 423.061 448.367 427.964C452.671 433.191 457.076 438.652 462.094 443.053C467.128 447.374 472.098 451.806 477.6 455.572C485.273 460.385 493.637 463.592 501.847 467.271C507.651 469.797 513.799 471.371 519.77 473.404C524.393 475.012 527.04 479.223 529.676 483.044C530.489 484.191 531.325 485.352 532.113 486.544L532.12 486.43ZM542.258 537.294C543.023 534.434 545.907 526.166 544.122 523.838C543.613 523.338 542.779 523.299 542.217 523.711C541.339 524.413 541.335 525.648 540.944 526.631C540.373 528.335 539.591 529.947 538.586 531.431C535.836 535.325 532.742 539.405 528.293 541.641C521.084 544.819 512.071 544.066 505.462 539.66C500.976 536.333 496.255 532.901 493.182 528.149C490.403 523.656 487.904 518.882 486.055 513.953C485.987 512.588 483.912 512.244 483.444 513.566C483.207 514.284 483.496 515.011 483.753 515.69C484.227 516.966 484.841 518.204 485.432 519.43C487.304 523.399 489.245 527.35 491.802 530.949C491.525 531.378 491.504 531.926 491.727 532.409C492.549 534.003 493.465 535.534 494.265 537.116C494.865 538.377 495.361 539.665 495.845 540.976C497.847 545.64 499.072 551.24 503.543 554.234C510.133 558.776 520.635 558.944 527.802 555.683C535.493 552.489 539.883 545.09 542.289 537.341L542.258 537.294Z" fill="#CD5048"/>
<path fill-rule="evenodd" clip-rule="evenodd" d="M398.043 283.215C399.025 278.446 405.995 281.97 409.423 280.942C424.813 279.599 439.405 273.963 454.21 270.308C464.534 271.552 457.219 283.865 451.701 286.928C450.636 287.699 449.112 287.526 448.282 286.457C445.935 282.391 455.17 279.999 454.538 275.213C447.043 276.84 400.661 292.538 398.03 283.237L398.043 283.215Z" fill="#3F1D1E"/>
<path fill-rule="evenodd" clip-rule="evenodd" d="M450.706 283.64C448.23 276.934 476.856 279.667 481.12 279.593C491.865 279.342 513.389 285.785 493.69 294.898C490.672 295.573 483.566 299.34 482.417 294.786C481.925 290.729 493.076 291.92 496.497 287.734C487.478 283.412 476.864 284.358 467.135 284.076C462.903 284.197 458.657 284.34 454.616 284.896C453.178 285.392 451.353 285.281 450.763 283.644L450.706 283.64Z" fill="#3F1D1E"/>
<path fill-rule="evenodd" clip-rule="evenodd" d="M549.582 378.811C525.352 363.76 519.588 334.316 503.326 312.724C498.5 307.226 492.62 302.682 486.198 299.18C484.581 298.247 482.402 297.726 481.68 295.805C480.486 286.981 495.867 299.87 498.505 301.54C506.893 307.621 512.192 316.546 517.104 325.425C526.64 343.222 534.078 363.169 551.9 374.49C558.714 379.308 565.954 382.928 573.339 386.602C576.184 387.862 574.221 392.388 571.335 391.046C563.896 387.311 556.374 383.617 549.56 378.798L549.582 378.811Z" fill="#3F1D1E"/>
<path fill-rule="evenodd" clip-rule="evenodd" d="M577.636 438.633C577.204 438.207 576.857 437.682 576.72 437.102C570.905 423.752 559.868 412.339 557.685 397.608C556.73 385.148 572.542 386.142 580.576 389.513C589.926 393.26 605.409 394.211 607.981 405.866C606.684 420.386 592.89 429.754 581.791 437.318C581.527 439.258 578.959 440.075 577.636 438.633ZM577.386 427.612C578.344 429.226 579.263 430.906 580.008 432.634C589.562 426.211 600.832 418.452 603.173 406.42C600.595 398.919 589.946 398.136 583.416 395.485C547.241 381.792 567.94 411.96 577.399 427.59L577.386 427.612Z" fill="#3F1D1E"/>
<path fill-rule="evenodd" clip-rule="evenodd" d="M478.207 459.224C461.288 448.129 446.952 433.072 436.587 415.74C435.297 412.195 428.167 402.095 433.165 400.087C435.068 399.653 436.102 401.34 436.372 402.97C437.643 407.006 439.395 410.876 441.515 414.517C452.938 432.932 468.837 448.656 487.714 459.377C518.27 475.899 549.26 473.923 570.197 444.154C572.888 441.64 573.934 435.789 577.545 434.955C579.456 434.968 580.604 437.429 579.372 438.899C556.021 480.008 516.119 483.971 478.207 459.224Z" fill="#3F1D1E"/>
<path fill-rule="evenodd" clip-rule="evenodd" d="M546.101 466.558C547.197 463.536 550.657 465.622 552.914 465.599C555.988 465.9 559.083 465.858 562.168 465.783C583.568 465.433 593.331 441.977 596.829 423.952C597.299 422.219 597.4 420.509 597.47 418.751C599.263 414.981 603.584 418.184 602.237 421.592C598.827 442.379 588.094 469.049 563.852 470.587C559.992 470.215 545.236 472.455 546.114 466.536L546.101 466.558Z" fill="#3F1D1E"/>
<path fill-rule="evenodd" clip-rule="evenodd" d="M414.211 403.971C415.325 400.251 420.304 402.979 423.105 401.913C429.951 400.589 435.965 396.309 440.874 391.539C444.232 386.491 449.49 389.35 446.207 393.144C444.636 394.536 443.27 396.135 441.654 397.501C436.127 402.063 429.629 406.21 422.338 406.923C419.672 406.888 413.976 408.109 414.211 403.971Z" fill="#3F1D1E"/>
<path fill-rule="evenodd" clip-rule="evenodd" d="M467.242 476.475C456.639 467.788 447.672 457.188 441.136 445.19C437.572 438.475 435.139 431.234 432.773 424.031C431.273 417.27 426.864 408.8 428.223 402.098C429.84 399.759 433.833 401.74 432.609 404.423C437.083 425.105 444.077 446.181 458.893 461.838C462.582 466.444 467.877 469.649 471.071 474.087C471.501 476.104 468.883 477.775 467.255 476.453L467.242 476.475Z" fill="#3F1D1E"/>
<path fill-rule="evenodd" clip-rule="evenodd" d="M496.778 550.712C488.043 539.096 485.455 524.249 480.433 510.855C473.683 489.154 466.114 467.541 450.765 450.249C446.65 445.308 442.627 440.156 437.866 435.874C436.292 433.639 439.321 430.848 441.499 432.548C449.471 440.216 456.178 449.158 462.691 458.077C476.003 475.726 480.666 497.873 488.052 518.32C493.061 532.502 496.908 553.146 514.524 555.976C545.01 557.277 545.34 518.558 535.528 498.273C532.498 491.247 528.697 484.484 524.079 478.368C522.796 476.449 519.098 474.314 521.523 471.852C525.791 469.011 530.455 479.751 532.766 482.499C541.973 497.336 548.143 514.93 545.563 532.541C544.586 557.297 512.991 571.775 496.724 550.652L496.778 550.712Z" fill="#3F1D1E"/>
<path fill-rule="evenodd" clip-rule="evenodd" d="M514.466 513.378C510.146 496.057 502.939 478.573 489.49 466.327C486.208 464.698 489.143 459.819 492.007 462.121C501.039 469.693 507.207 480.182 512.087 490.752C515.26 497.683 517.226 505.067 519.196 512.395C519.885 515.445 515.072 516.469 514.431 513.387L514.466 513.378Z" fill="#3F1D1E"/>
<path fill-rule="evenodd" clip-rule="evenodd" d="M452.304 360.495C446.047 355.173 454.146 343.549 461.331 347.52C468.75 352.363 459.238 364.44 452.304 360.495Z" fill="#3F1D1E"/>
<path fill-rule="evenodd" clip-rule="evenodd" d="M447.468 325.043C445.272 323.068 445.37 319.676 446.863 317.295C452.281 308.78 464.392 308.462 473.348 310.184C483.978 311.664 489.372 322.266 476.696 326.119C467.986 328.164 455.253 330.275 447.468 325.043ZM451.353 321.892C453.362 323.17 456.006 322.22 458.018 323.235C465.067 322.942 473.632 323.908 479.281 319.033C476.731 311.636 448.468 312.828 451.353 321.892Z" fill="#3F1D1E"/>
<path fill-rule="evenodd" clip-rule="evenodd" d="M515.805 328.801C516.408 323.46 528.05 326.821 531.562 327.64C560.808 334.208 580.755 359.491 609.294 367.744C627.899 373.975 647.744 374.939 667.073 372.451C686.23 369.185 706.213 363.007 720.729 349.575C725.485 344.303 735.113 334.888 728.26 328.042C721.431 324.631 713.489 323.966 706.389 321.075C696.564 317.79 687.284 313.051 678.482 307.586C656.804 294.098 637.783 276.16 614.325 265.652C579.684 251.194 541.973 264.351 510.492 280.575C506.525 282.588 502.803 285.097 499.085 287.548C498.377 288.672 496.8 289 495.677 288.234C494.368 287.331 494.226 285.48 495.302 284.333C527.726 263.407 568.409 247.455 607.224 257.956C636.593 267.072 658.498 290.448 684.681 305.594C694.144 311.294 704.381 315.553 714.948 318.677C720.812 320.795 727.932 320.838 732.584 325.41C742.407 338.569 724.263 353.885 714.14 360.834C686.817 377.424 652.802 382.133 621.605 376.03C606.514 372.918 592.054 367.075 579.145 358.649C567.774 351.701 557.581 342.662 545.214 337.438C537.718 334.672 530.062 331.313 522.005 330.847C519.741 330.779 516.155 331.98 515.739 328.762L515.805 328.801Z" fill="#3F1D1E"/>
<path fill-rule="evenodd" clip-rule="evenodd" d="M341.753 312.851C338.588 305.6 331.859 300.89 325.956 295.978C318.052 290.03 310.866 283.198 305.117 275.104C285.444 245.205 284.66 205.549 298.784 173.261C305.818 151.618 311.444 127.453 306.174 104.926C303.403 92.9509 297.508 81.7357 295.851 69.5192C294.597 57.2699 301.813 47.0218 315.057 49.8047C339.253 54.6365 362.719 65.7965 380.457 83.1419C416.704 119.161 435.361 160.382 401.98 205.722C390.034 221.964 372.6 241.523 378.784 263.133C382.739 273.464 393.189 279.91 403.525 281.544C407.893 292.644 383.885 279.815 381.876 276.238C364.298 260.046 375.007 234.542 386.665 218.133C427.281 169.571 422.365 134.515 379.905 89.3666C368.599 77.6515 354.865 68.4549 339.754 62.4124C330.295 59.5159 309.414 48.2266 302.407 58.6247C298.162 68.0233 302.762 77.9014 305.718 86.9475C308.922 96.432 312.234 106.037 313.059 116.064C313.662 130.974 311.304 146.002 307.81 160.491C302.76 179.211 293.508 197.127 293.843 216.952C294.128 236.453 298.369 257.03 309.765 273.189C317.503 284.436 329.25 291.602 339.034 300.788C341.915 304.132 346.26 307.908 346.281 312.577C345.693 314.566 342.598 314.813 341.766 312.829L341.753 312.851Z" fill="#3F1D1E"/>
<path fill-rule="evenodd" clip-rule="evenodd" d="M338.861 302.928C335.698 299.098 342.276 296.706 345.276 298.261C340.236 286.891 350.131 285.913 357.246 292.408C354.955 284.512 349.507 278.095 345.6 271.005C340.533 262.037 335.949 252.64 333.568 242.599C323.005 199.478 369.732 154.238 328.706 116.167C323.525 112.409 317.482 109.834 311.328 108.374C309.007 108.508 307.935 105.148 309.909 103.929C316.311 102.761 326.911 108.999 332.184 112.752C361.788 140.485 349.082 173.384 339.802 206.641C335.198 223.054 335.601 240.56 343.342 255.995C348.471 269.509 359.79 280.229 362.65 294.555C363.132 305.534 353.102 294.319 348.706 293.137C348.558 296.973 355.116 302.439 350.395 305.196C347.406 305.975 345.231 302.48 342.238 302.756C341.409 303.781 339.793 303.82 338.835 302.973L338.861 302.928Z" fill="#3F1D1E"/>
<path fill-rule="evenodd" clip-rule="evenodd" d="M349.668 642.638C304.691 587.99 299.712 503.288 307.441 435.591C311.295 406.365 320.128 378.127 329.702 350.345C333.395 338.476 340.438 327.096 340.457 314.432C337.649 309.068 348.979 305.705 344.379 323.594C335.41 350.634 324.671 377.212 318.141 405.041C304.23 467.489 305.265 535.705 328.061 595.941C332.222 606.273 337.007 616.345 342.998 625.759C345.865 630.509 349.027 635.106 352.95 639.051C355.269 641.068 351.974 644.883 349.668 642.638Z" fill="#3F1D1E"/>
<path fill-rule="evenodd" clip-rule="evenodd" d="M252.247 686.495C240.544 675.11 252.691 661.077 264.407 656.228C277.787 653.252 291.868 655.457 305.473 654.086C327.792 652.145 349.047 643.252 367.298 630.562C375.693 624.561 383.934 618.265 391.066 610.769C393.17 608.506 396.829 611.885 394.576 614.151C393.099 615.686 391.591 617.174 390.06 618.648C369.559 637.026 345.066 652.449 317.565 657.176C306.219 659.645 294.814 659.251 283.308 659.594C276.983 659.862 270.177 658.763 264.308 661.564C256.941 665.682 247.25 675.002 255.675 682.962C257.997 685.127 254.499 688.679 252.295 686.463L252.247 686.495Z" fill="#3F1D1E"/>
<path fill-rule="evenodd" clip-rule="evenodd" d="M275.688 711.2C272.024 708.495 267.366 706.13 265.805 701.573C264.652 692.065 275.341 682.908 284.059 681.309C287.731 680.216 298.993 683.211 295.879 688.399C294.953 689.338 293.393 689.381 292.43 688.441C286.511 682.636 277.715 688.052 273.583 693.419C271.186 696.191 268.624 700.577 272.783 703.038C277.695 706.906 282.96 710.417 288.529 713.249C315.897 723.685 346.542 719.034 374.495 713.626C385.826 710.824 397.969 709.581 408.445 704.222C408.211 699.665 428.773 703.224 433.679 697.744C424.548 692.797 433.929 690.048 439.147 688.58C447.892 685.552 455.907 681.13 463.963 676.791C467.226 675.845 475.429 666.904 476.388 673.884C474.762 677.366 465.954 680.859 462.405 683.172C454.314 687.521 446.049 691.71 437.201 694.354C444.951 705.579 419.24 706.593 412.769 706.807C404.229 714.08 386.659 715.313 375.678 718.377C343.776 724.335 303.936 731.105 275.698 711.235L275.688 711.2Z" fill="#3F1D1E"/>
<path fill-rule="evenodd" clip-rule="evenodd" d="M261.658 696.173C250.337 690.109 254.026 679.476 260.926 671.462C265.697 665.551 274.028 663.905 281.148 665.893C284.194 666.65 283.042 671.408 279.985 670.617C278.016 670.039 275.962 669.915 273.929 670.009C267.693 670.122 263.302 675.222 260.759 680.445C257.645 685.839 259.435 689.437 264.636 692.293C266.491 693.835 271.051 694.375 269.505 697.668C267.423 700.711 263.923 697.363 261.658 696.173Z" fill="#3F1D1E"/>
<path fill-rule="evenodd" clip-rule="evenodd" d="M191.07 615.978C185.22 613.071 185.282 606.622 188.373 601.627C191.352 594.268 198.38 588.334 206.709 589.811C209.872 590.164 209.286 595.013 206.158 594.652C202.245 594.014 198.207 595.485 195.786 598.656C189.123 608.663 189.151 610.507 200.31 615.623C215.272 621.874 231.715 623.821 247.81 622.944C265.919 622.67 283.619 618.504 300.263 611.46C307.026 608.849 313.41 605.461 319.836 602.156C322.506 601.162 327.478 597.46 328.755 601.793C328.91 605.361 323.69 604.941 321.521 606.754C312.684 611.527 303.573 615.699 294.123 619.027C263.269 630.278 220.181 633.315 191.067 616.035L191.07 615.978Z" fill="#3F1D1E"/>
<path fill-rule="evenodd" clip-rule="evenodd" d="M186.653 611.307C166.874 602.098 169.459 580.54 191.811 579.208C195.851 579.624 194.449 584.917 190.661 584.115C173.361 586.566 175.181 600.852 189.264 607.244C193.634 609.442 189.756 615.545 186.662 611.342L186.653 611.307Z" fill="#3F1D1E"/>
<path fill-rule="evenodd" clip-rule="evenodd" d="M173.255 596.822C164.674 592.457 164.46 580.042 172.272 574.796C188.971 563.567 210.645 565.557 229.622 561.068C254.378 555.317 276.827 541.542 294.369 523.432C297.89 519.687 301.344 515.903 304.295 511.712C305.069 510.626 306.639 510.413 307.692 511.197C311.583 514.328 300.776 522.768 298.907 525.698C281.983 543.812 260.089 557.494 236.28 564.47C224.712 569.523 158.72 568.916 173.726 591.199C179.881 594.192 176.993 599.245 173.242 596.844L173.255 596.822Z" fill="#3F1D1E"/>
<path fill-rule="evenodd" clip-rule="evenodd" d="M424.651 705.709C420.813 703.612 425.5 698.153 427.838 701.978C481.297 735.083 543.056 749.516 603.863 762.427C668.576 776.857 734.269 786.929 798.509 803.355C803.213 805.334 829.183 811.131 825.995 816.04C825.295 817.405 823.551 817.665 822.314 816.892C775.443 798.203 724.481 793.452 675.607 782.066C590.305 763.767 500.324 752.141 424.651 705.709Z" fill="#3F1D1E"/>
<path fill-rule="evenodd" clip-rule="evenodd" d="M1080.24 923.714C1082.41 920.482 1088.72 926.219 1094.67 925.734C1117.09 925.916 1117.89 914.912 1103.47 900.159C1094.63 890.516 1085.27 881.253 1077.51 870.668C1065.41 856.697 1060.7 838.826 1052.27 822.846C1047.17 815.569 1039.99 810.214 1034.1 803.633C1021.12 788.121 1017.34 767.309 1013.12 748.073C1006.38 710.869 1005.11 671.343 985.023 638.113C962.021 596.388 920.06 586.989 876.389 580.758C833.136 574.415 789.62 569.807 746.556 562.217C710.849 555.486 675.225 548.153 640.073 539.029C599.666 529.496 558.923 513.283 530.031 482.424C528.046 479.42 524.24 477.164 523.435 473.752C523.877 470.941 527.56 471.211 528.734 473.421C537.855 485.084 549.509 494.406 561.906 502.389C589.248 521.152 621.537 529.507 653.267 537.45C717.692 553.452 783.206 564.04 849.034 572.039C888.93 578.212 933.388 580.269 965.858 606.975C1022.02 656.878 1003.8 729.041 1030.88 790.132C1036.86 803.102 1050.39 810.09 1057.59 822.174C1065.28 838.669 1070.98 856.2 1083.24 870.146C1092.63 884.674 1116.54 900.334 1118.2 916.979C1117.27 930.468 1098.99 932.002 1088.56 929.757C1085.9 928.954 1078.52 927.877 1080.24 923.714Z" fill="#3F1D1E"/>
<path fill-rule="evenodd" clip-rule="evenodd" d="M534.706 426.257C535.37 425.108 536.871 424.707 538.023 425.372C539.174 426.037 539.577 427.537 538.914 428.687C538.25 429.836 536.749 430.237 535.597 429.572C534.446 428.907 534.043 427.407 534.706 426.257Z" fill="#3F1D1E"/>
<path d="M551.554 439.521C552.716 440.192 554.201 439.796 554.871 438.636C555.54 437.476 555.141 435.992 553.98 435.321C552.818 434.65 551.333 435.047 550.663 436.207C549.994 437.367 550.393 438.851 551.554 439.521Z" fill="#3F1D1E"/>
<path d="M531.518 448.707C532.68 449.378 534.165 448.981 534.835 447.821C535.504 446.661 535.105 445.177 533.944 444.507C532.782 443.836 531.297 444.232 530.627 445.392C529.958 446.552 530.357 448.036 531.518 448.707Z" fill="#3F1D1E"/>
<path fill-rule="evenodd" clip-rule="evenodd" d="M453.787 686.538C454.309 682.565 459.949 684.406 462.73 683.271C466.309 683.362 476.565 676.491 475.85 683.712C473.751 686.274 468.183 686.508 464.983 687.755C461.711 687.9 454.778 691.266 453.809 686.551L453.787 686.538Z" fill="#3F1D1E"/>
</g>
<defs>
<clipPath id="clip0_596_1383">
<rect width="1141.71" height="661.7" fill="white" transform="translate(330.851) rotate(30)"/>
</clipPath>
</defs>
</svg>
