<svg width="20" height="20" viewBox="0 0 20 20" fill="none" xmlns="http://www.w3.org/2000/svg">
<path d="M12.754 8C13.72 8 14.504 8.784 14.504 9.75V14.499C14.504 15.6927 14.0298 16.8376 13.1857 17.6817C12.3416 18.5258 11.1967 19 10.003 19C8.80926 19 7.66441 18.5258 6.82031 17.6817C5.97621 16.8376 5.502 15.6927 5.502 14.499V9.75C5.502 8.784 6.285 8 7.252 8H12.754ZM12.754 9.5H7.252C7.1857 9.5 7.12211 9.52634 7.07522 9.57322C7.02834 9.62011 7.002 9.6837 7.002 9.75V14.499C7.002 15.2949 7.31818 16.0582 7.88097 16.621C8.44377 17.1838 9.20709 17.5 10.003 17.5C10.7989 17.5 11.5622 17.1838 12.125 16.621C12.6878 16.0582 13.004 15.2949 13.004 14.499V9.75C13.004 9.6837 12.9777 9.62011 12.9308 9.57322C12.8839 9.52634 12.8203 9.5 12.754 9.5ZM1.75 8H5.131C4.7782 8.42609 4.56274 8.94905 4.513 9.5H1.75C1.6837 9.5 1.62011 9.52634 1.57322 9.57322C1.52634 9.62011 1.5 9.6837 1.5 9.75V12.999C1.49994 13.3769 1.5855 13.7499 1.75027 14.0899C1.91504 14.43 2.15473 14.7283 2.45133 14.9625C2.74793 15.1966 3.09374 15.3605 3.46277 15.4418C3.83179 15.5231 4.21445 15.5198 4.582 15.432C4.667 15.936 4.822 16.417 5.035 16.864C4.44228 17.0226 3.82103 17.0427 3.21929 16.9228C2.61756 16.8029 2.05145 16.5463 1.56475 16.1727C1.07805 15.7991 0.683789 15.3185 0.412463 14.7682C0.141138 14.2179 1.22998e-05 13.6126 0 12.999V9.75C0 8.784 0.784 8 1.75 8ZM14.875 8H18.25C19.216 8 20 8.784 20 9.75V13C20.0001 13.6132 19.8593 14.2182 19.5884 14.7682C19.3175 15.3183 18.9237 15.7987 18.4376 16.1724C17.9514 16.546 17.3858 16.8029 16.7846 16.9232C16.1833 17.0435 15.5625 17.0239 14.97 16.866C15.184 16.418 15.339 15.937 15.425 15.433C15.7921 15.5198 16.174 15.5223 16.5423 15.4405C16.9105 15.3587 17.2554 15.1946 17.5512 14.9606C17.847 14.7265 18.086 14.4286 18.2503 14.089C18.4147 13.7495 18.5 13.3772 18.5 13V9.75C18.5 9.6837 18.4737 9.62011 18.4268 9.57322C18.3799 9.52634 18.3163 9.5 18.25 9.5H15.493C15.4433 8.94905 15.2278 8.42609 14.875 8ZM10 1C10.7956 1 11.5587 1.31607 12.1213 1.87868C12.6839 2.44129 13 3.20435 13 4C13 4.79565 12.6839 5.55871 12.1213 6.12132C11.5587 6.68393 10.7956 7 10 7C9.20435 7 8.44129 6.68393 7.87868 6.12132C7.31607 5.55871 7 4.79565 7 4C7 3.20435 7.31607 2.44129 7.87868 1.87868C8.44129 1.31607 9.20435 1 10 1ZM16.5 2C17.163 2 17.7989 2.26339 18.2678 2.73223C18.7366 3.20107 19 3.83696 19 4.5C19 5.16304 18.7366 5.79893 18.2678 6.26777C17.7989 6.73661 17.163 7 16.5 7C15.837 7 15.2011 6.73661 14.7322 6.26777C14.2634 5.79893 14 5.16304 14 4.5C14 3.83696 14.2634 3.20107 14.7322 2.73223C15.2011 2.26339 15.837 2 16.5 2ZM3.5 2C4.16304 2 4.79893 2.26339 5.26777 2.73223C5.73661 3.20107 6 3.83696 6 4.5C6 5.16304 5.73661 5.79893 5.26777 6.26777C4.79893 6.73661 4.16304 7 3.5 7C2.83696 7 2.20107 6.73661 1.73223 6.26777C1.26339 5.79893 1 5.16304 1 4.5C1 3.83696 1.26339 3.20107 1.73223 2.73223C2.20107 2.26339 2.83696 2 3.5 2ZM10 2.5C9.60218 2.5 9.22064 2.65804 8.93934 2.93934C8.65804 3.22064 8.5 3.60218 8.5 4C8.5 4.39782 8.65804 4.77936 8.93934 5.06066C9.22064 5.34196 9.60218 5.5 10 5.5C10.3978 5.5 10.7794 5.34196 11.0607 5.06066C11.342 4.77936 11.5 4.39782 11.5 4C11.5 3.60218 11.342 3.22064 11.0607 2.93934C10.7794 2.65804 10.3978 2.5 10 2.5ZM16.5 3.5C16.2348 3.5 15.9804 3.60536 15.7929 3.79289C15.6054 3.98043 15.5 4.23478 15.5 4.5C15.5 4.76522 15.6054 5.01957 15.7929 5.20711C15.9804 5.39464 16.2348 5.5 16.5 5.5C16.7652 5.5 17.0196 5.39464 17.2071 5.20711C17.3946 5.01957 17.5 4.76522 17.5 4.5C17.5 4.23478 17.3946 3.98043 17.2071 3.79289C17.0196 3.60536 16.7652 3.5 16.5 3.5ZM3.5 3.5C3.23478 3.5 2.98043 3.60536 2.79289 3.79289C2.60536 3.98043 2.5 4.23478 2.5 4.5C2.5 4.76522 2.60536 5.01957 2.79289 5.20711C2.98043 5.39464 3.23478 5.5 3.5 5.5C3.76522 5.5 4.01957 5.39464 4.20711 5.20711C4.39464 5.01957 4.5 4.76522 4.5 4.5C4.5 4.23478 4.39464 3.98043 4.20711 3.79289C4.01957 3.60536 3.76522 3.5 3.5 3.5Z" fill="white"/>
</svg>
