<svg width="21" height="21" viewBox="0 0 21 21" fill="none" xmlns="http://www.w3.org/2000/svg">
<path d="M0.5 15.5652V6.43478C0.5 5.78904 0.734126 5.16974 1.15087 4.71313C1.56762 4.25652 2.13285 4 2.72222 4H12.1667C12.756 4 13.3213 4.25652 13.738 4.71313C14.1548 5.16974 14.3889 5.78904 14.3889 6.43478V15.5652C14.3889 16.211 14.1548 16.8303 13.738 17.2869C13.3213 17.7435 12.756 18 12.1667 18H2.72222C2.13285 18 1.56762 17.7435 1.15087 17.2869C0.734126 16.8303 0.5 16.211 0.5 15.5652ZM19.5756 4.90209L15.1311 9.23965C15.0725 9.29664 15.0256 9.36656 14.9935 9.44482C14.9613 9.52308 14.9446 9.60791 14.9444 9.69374V11.8583C14.9446 11.9441 14.9613 12.0289 14.9935 12.1072C15.0256 12.1854 15.0725 12.2554 15.1311 12.3123L19.5756 16.6499C19.6556 16.7278 19.7546 16.7787 19.8604 16.7965C19.9663 16.8142 20.0745 16.7981 20.1722 16.75C20.2699 16.7018 20.3528 16.6238 20.411 16.5253C20.4691 16.4268 20.5 16.3119 20.5 16.1946V5.35739C20.5 5.24006 20.4691 5.12522 20.411 5.02669C20.3528 4.92816 20.2699 4.85015 20.1722 4.80205C20.0745 4.75394 19.9663 4.73779 19.8604 4.75554C19.7546 4.77329 19.6556 4.82418 19.5756 4.90209Z" stroke="black" stroke-linecap="round" stroke-linejoin="round"/>
</svg>
